<svg width="31" height="31" viewBox="0 0 31 31" fill="none" xmlns="http://www.w3.org/2000/svg">
<g id="mdi:location">
<path id="Vector" d="M15.3599 14.7196C14.5112 14.7196 13.6973 14.3824 13.0972 13.7823C12.497 13.1822 12.1599 12.3683 12.1599 11.5196C12.1599 10.6709 12.497 9.85695 13.0972 9.25683C13.6973 8.65671 14.5112 8.31957 15.3599 8.31957C16.2086 8.31957 17.0225 8.65671 17.6226 9.25683C18.2228 9.85695 18.5599 10.6709 18.5599 11.5196C18.5599 11.9398 18.4771 12.3559 18.3163 12.7442C18.1555 13.1324 17.9198 13.4852 17.6226 13.7823C17.3255 14.0795 16.9727 14.3152 16.5845 14.476C16.1962 14.6368 15.7801 14.7196 15.3599 14.7196ZM15.3599 2.55957C12.9836 2.55957 10.7046 3.50357 9.02423 5.18389C7.3439 6.86422 6.3999 9.14323 6.3999 11.5196C6.3999 18.2396 15.3599 28.1596 15.3599 28.1596C15.3599 28.1596 24.3199 18.2396 24.3199 11.5196C24.3199 9.14323 23.3759 6.86422 21.6956 5.18389C20.0153 3.50357 17.7362 2.55957 15.3599 2.55957Z" fill="black"/>
</g>
</svg>
