<svg width="31" height="31" viewBox="0 0 31 31" fill="none" xmlns="http://www.w3.org/2000/svg">
<g id="mingcute:time-line" clip-path="url(#clip0_98_821)">
<g id="Group">
<path id="Vector" d="M15.3601 2.55957C22.4295 2.55957 28.1601 8.29013 28.1601 15.3596C28.1601 22.429 22.4295 28.1596 15.3601 28.1596C8.29062 28.1596 2.56006 22.429 2.56006 15.3596C2.56006 8.29013 8.29062 2.55957 15.3601 2.55957ZM15.3601 5.11957C12.6442 5.11957 10.0397 6.19842 8.11929 8.1188C6.19891 10.0392 5.12006 12.6438 5.12006 15.3596C5.12006 18.0754 6.19891 20.68 8.11929 22.6003C10.0397 24.5207 12.6442 25.5996 15.3601 25.5996C18.0759 25.5996 20.6805 24.5207 22.6008 22.6003C24.5212 20.68 25.6001 18.0754 25.6001 15.3596C25.6001 12.6438 24.5212 10.0392 22.6008 8.1188C20.6805 6.19842 18.0759 5.11957 15.3601 5.11957ZM15.3601 7.67957C15.6736 7.67961 15.9762 7.79471 16.2105 8.00305C16.4447 8.21138 16.5944 8.49845 16.6311 8.80981L16.6401 8.95957V14.8297L20.105 18.2946C20.3346 18.525 20.4679 18.834 20.4778 19.1591C20.4877 19.4842 20.3735 19.8008 20.1585 20.0447C19.9434 20.2887 19.6435 20.4416 19.3198 20.4724C18.996 20.5032 18.6727 20.4097 18.4154 20.2108L18.2951 20.1045L14.4551 16.2645C14.2562 16.0654 14.1284 15.8063 14.0916 15.5272L14.0801 15.3596V8.95957C14.0801 8.62009 14.2149 8.29452 14.455 8.05447C14.695 7.81443 15.0206 7.67957 15.3601 7.67957Z" fill="black"/>
</g>
</g>
<defs>
<clipPath id="clip0_98_821">
<rect width="30.72" height="30.72" fill="white"/>
</clipPath>
</defs>
</svg>
