<svg width="31" height="31" viewBox="0 0 31 31" fill="none" xmlns="http://www.w3.org/2000/svg">
<g id="ic:baseline-people-alt">
<path id="Vector" fill-rule="evenodd" clip-rule="evenodd" d="M21.3374 16.8062C23.091 17.9966 24.3198 19.6094 24.3198 21.7598V25.5998H29.4398V21.7598C29.4398 18.9694 24.8702 17.3182 21.3374 16.8062Z" fill="black"/>
<path id="Vector_2" d="M11.5199 15.3601C14.3476 15.3601 16.6399 13.0678 16.6399 10.2401C16.6399 7.41242 14.3476 5.12012 11.5199 5.12012C8.6922 5.12012 6.3999 7.41242 6.3999 10.2401C6.3999 13.0678 8.6922 15.3601 11.5199 15.3601Z" fill="black"/>
<path id="Vector_3" fill-rule="evenodd" clip-rule="evenodd" d="M19.2 15.3601C22.0288 15.3601 24.32 13.0689 24.32 10.2401C24.32 7.41132 22.0288 5.12012 19.2 5.12012C18.5984 5.12012 18.0352 5.24812 17.4976 5.42732C18.5991 6.78951 19.2 8.48831 19.2 10.2401C19.2 11.9919 18.5991 13.6907 17.4976 15.0529C18.0352 15.2321 18.5984 15.3601 19.2 15.3601ZM11.52 16.6401C8.10243 16.6401 1.28003 18.3553 1.28003 21.7601V25.6001H21.76V21.7601C21.76 18.3553 14.9376 16.6401 11.52 16.6401Z" fill="black"/>
</g>
</svg>
