<svg width="31" height="31" viewBox="0 0 31 31" fill="none" xmlns="http://www.w3.org/2000/svg">
<g id="solar:document-add-outline">
<path id="Vector" fill-rule="evenodd" clip-rule="evenodd" d="M14.0082 1.6001H16.7116C19.0642 1.6001 20.9279 1.6001 22.3858 1.79594C23.886 1.99818 25.1007 2.42314 26.0594 3.38058C26.229 3.56256 26.3213 3.80326 26.3169 4.05197C26.3125 4.30067 26.2118 4.53796 26.0359 4.71385C25.86 4.88974 25.6227 4.99049 25.374 4.99488C25.1253 4.99927 24.8846 4.90695 24.7026 4.73738C24.1599 4.19722 23.4175 3.8721 22.1298 3.6993C20.8152 3.52266 19.0808 3.5201 16.6399 3.5201H14.0799C11.6389 3.5201 9.9058 3.52266 8.58868 3.6993C7.30228 3.8721 6.55988 4.19722 6.01844 4.73866C5.477 5.2801 5.15188 6.0225 4.97908 7.31018C4.80244 8.62602 4.79988 10.3591 4.79988 12.8001V17.9201C4.79988 20.3611 4.80244 22.0955 4.97908 23.4113C5.15188 24.6977 5.477 25.4401 6.01844 25.9815C6.55988 26.523 7.30228 26.8481 8.58996 27.0209C9.9058 27.1975 11.6389 27.2001 14.0799 27.2001H16.6399C19.0808 27.2001 20.8152 27.1975 22.1311 27.0209C23.4175 26.8481 24.1599 26.523 24.7013 25.9815C25.5922 25.0907 25.8623 23.707 25.9084 20.466C25.9121 20.2114 26.0168 19.9687 26.1995 19.7913C26.3822 19.6139 26.6278 19.5164 26.8824 19.5201C27.1371 19.5238 27.3797 19.6286 27.5571 19.8112C27.7345 19.9939 27.8321 20.2396 27.8284 20.4942C27.7836 23.6007 27.5826 25.8164 26.0594 27.3396C25.1007 28.2971 23.886 28.722 22.3858 28.9243C20.9266 29.1201 19.0642 29.1201 16.7116 29.1201H14.0082C11.6556 29.1201 9.79188 29.1201 8.33396 28.9243C6.8338 28.722 5.61908 28.2971 4.66036 27.3396C3.70292 26.3809 3.27796 25.1662 3.07572 23.666C2.87988 22.2068 2.87988 20.3444 2.87988 17.9918V12.7284C2.87988 10.3758 2.87988 8.5121 3.07572 7.05418C3.27796 5.55402 3.70292 4.3393 4.66036 3.38058C5.61908 2.42314 6.8338 1.99818 8.33396 1.79594C9.79316 1.6001 11.6556 1.6001 14.0082 1.6001ZM23.1858 9.01898C23.5058 8.68402 23.8895 8.41639 24.3143 8.23181C24.7392 8.04723 25.1967 7.94942 25.6599 7.94412C26.1231 7.93883 26.5826 8.02615 27.0116 8.20097C27.4406 8.37579 27.8303 8.63458 28.1578 8.96213C28.4854 9.28968 28.7442 9.67939 28.919 10.1084C29.0938 10.5373 29.1812 10.9969 29.1759 11.4601C29.1706 11.9233 29.0728 12.3808 28.8882 12.8056C28.7036 13.2305 28.436 13.6142 28.101 13.9342L22.0159 20.0231C21.7627 20.2898 21.4934 20.5408 21.2095 20.7745C20.9151 21.0049 20.5951 21.202 20.2572 21.3633C19.9704 21.5003 19.6684 21.6001 19.2255 21.7473L16.558 22.6369C16.2691 22.7335 15.959 22.7478 15.6626 22.6779C15.3661 22.6081 15.0949 22.4571 14.8796 22.2417C14.6642 22.0263 14.5131 21.7552 14.4433 21.4587C14.3735 21.1622 14.3877 20.8521 14.4844 20.5633L15.356 17.9521L15.374 17.8971C15.5224 17.4529 15.6223 17.1521 15.7592 16.8654C15.9204 16.5275 16.1178 16.2082 16.348 15.9131C16.5439 15.6622 16.7679 15.4382 17.0994 15.1067L17.1391 15.067L23.1858 9.01898ZM26.7442 10.3758C26.5997 10.2312 26.4281 10.1165 26.2392 10.0382C26.0503 9.95997 25.8479 9.91969 25.6434 9.91969C25.439 9.91969 25.2365 9.95997 25.0476 10.0382C24.8588 10.1165 24.6871 10.2312 24.5426 10.3758L24.3096 10.6087C24.3224 10.651 24.3365 10.6983 24.3532 10.7457C24.4735 11.0913 24.7026 11.5521 25.1352 11.9847C25.5182 12.37 25.9911 12.6538 26.5112 12.8103L26.7442 12.5774C26.8888 12.4328 27.0035 12.2612 27.0818 12.0723C27.16 11.8835 27.2003 11.681 27.2003 11.4766C27.2003 11.2721 27.16 11.0697 27.0818 10.8808C27.0035 10.6919 26.8888 10.5203 26.7442 10.3758ZM25.0444 14.2772C24.5772 14.0315 24.15 13.7165 23.7772 13.3428C23.4035 12.97 23.0885 12.5428 22.8428 12.0756L18.4959 16.4225C18.1106 16.8078 17.9749 16.946 17.861 17.0919C17.7164 17.2775 17.5922 17.4785 17.4911 17.6897C17.4117 17.8574 17.349 18.0404 17.1762 18.5575L16.6642 20.0935L17.0264 20.4558L18.5624 19.9438C19.0796 19.771 19.2626 19.7083 19.4303 19.6289C19.6415 19.5265 19.8424 19.4036 20.028 19.259C20.174 19.1451 20.3122 19.0094 20.6975 18.6241L25.0444 14.2772ZM9.27988 11.5201C9.27988 11.2655 9.38103 11.0213 9.56106 10.8413C9.7411 10.6612 9.98527 10.5601 10.2399 10.5601H18.5599C18.8145 10.5601 19.0587 10.6612 19.2387 10.8413C19.4187 11.0213 19.5199 11.2655 19.5199 11.5201C19.5199 11.7747 19.4187 12.0189 19.2387 12.1989C19.0587 12.379 18.8145 12.4801 18.5599 12.4801H10.2399C9.98527 12.4801 9.7411 12.379 9.56106 12.1989C9.38103 12.0189 9.27988 11.7747 9.27988 11.5201ZM9.27988 16.6401C9.27988 16.3855 9.38103 16.1413 9.56106 15.9613C9.7411 15.7812 9.98527 15.6801 10.2399 15.6801H13.4399C13.6945 15.6801 13.9387 15.7812 14.1187 15.9613C14.2987 16.1413 14.3999 16.3855 14.3999 16.6401C14.3999 16.8947 14.2987 17.1389 14.1187 17.3189C13.9387 17.499 13.6945 17.6001 13.4399 17.6001H10.2399C9.98527 17.6001 9.7411 17.499 9.56106 17.3189C9.38103 17.1389 9.27988 16.8947 9.27988 16.6401ZM9.27988 21.7601C9.27988 21.5055 9.38103 21.2613 9.56106 21.0813C9.7411 20.9012 9.98527 20.8001 10.2399 20.8001H12.1599C12.4145 20.8001 12.6587 20.9012 12.8387 21.0813C13.0187 21.2613 13.1199 21.5055 13.1199 21.7601C13.1199 22.0147 13.0187 22.2589 12.8387 22.4389C12.6587 22.619 12.4145 22.7201 12.1599 22.7201H10.2399C9.98527 22.7201 9.7411 22.619 9.56106 22.4389C9.38103 22.2589 9.27988 22.0147 9.27988 21.7601Z" fill="black"/>
</g>
</svg>
