<svg width="538" height="201" viewBox="0 0 538 201" fill="none" xmlns="http://www.w3.org/2000/svg">
<path d="M0.27784 144.389V133.973L107.248 1.94999H123.293L16.6048 133.973L8.72284 131.721H168.052V144.389H0.27784ZM112.596 199V144.389L112.878 131.721V83.585H126.671V199H112.596ZM264.971 200.408C249.958 200.408 236.634 196.373 224.998 188.303C213.363 180.233 204.261 168.786 197.693 153.96C191.125 138.947 187.84 121.118 187.84 100.475C187.84 79.8317 191.125 62.0972 197.693 47.2715C204.261 32.2582 213.363 20.7167 224.998 12.647C236.634 4.57732 249.958 0.542488 264.971 0.542488C280.172 0.542488 293.497 4.57732 304.944 12.647C316.58 20.7167 325.682 32.2582 332.25 47.2715C338.818 62.0972 342.102 79.8317 342.102 100.475C342.102 121.118 338.818 138.947 332.25 153.96C325.682 168.786 316.58 180.233 304.944 188.303C293.497 196.373 280.172 200.408 264.971 200.408ZM264.971 187.177C277.545 187.177 288.524 183.799 297.907 177.043C307.29 170.099 314.609 160.153 319.864 147.204C325.119 134.255 327.746 118.679 327.746 100.475C327.746 82.0837 325.119 66.5073 319.864 53.746C314.609 40.797 307.29 30.9445 297.907 24.1885C288.524 17.2448 277.545 13.773 264.971 13.773C252.585 13.773 241.607 17.2448 232.036 24.1885C222.653 30.9445 215.334 40.797 210.079 53.746C204.824 66.5073 202.197 82.0837 202.197 100.475C202.197 118.679 204.824 134.255 210.079 147.204C215.334 160.153 222.653 170.099 232.036 177.043C241.607 183.799 252.585 187.177 264.971 187.177ZM369.747 144.389V133.973L476.717 1.94999H492.762L386.074 133.973L378.192 131.721H537.521V144.389H369.747ZM482.065 199V144.389L482.347 131.721V83.585H496.14V199H482.065Z" fill="black"/>
</svg>
