<svg width="171" height="73" viewBox="0 0 171 73" fill="none" xmlns="http://www.w3.org/2000/svg">
<rect width="171" height="73" fill="#F0F0F0"/>
<g clip-path="url(#clip0_0_1)">
<rect width="1440" height="1505" transform="translate(-266 -573)" fill="white"/>
<path d="M84.9879 617.605C84.9879 641.3 79.2683 662.953 67.8291 682.563C56.39 701.764 41.0693 717.085 21.8679 728.524C2.25781 739.963 -19.3949 745.683 -43.0904 745.683C-60.2491 745.683 -76.3866 742.006 -91.5026 734.652C-106.619 727.298 -119.896 717.289 -131.335 704.624C-142.775 717.289 -156.052 727.298 -171.168 734.652C-186.284 742.006 -202.218 745.683 -218.968 745.683C-242.255 745.683 -263.295 740.167 -282.088 729.137C-300.88 717.697 -315.792 702.581 -326.823 683.788C-338.262 664.587 -343.982 643.547 -343.982 620.669L-343.989 392.397H-266.774L-266.767 610.864C-266.767 619.443 -264.52 627.41 -260.026 634.763C-255.941 641.709 -250.221 647.428 -242.867 651.922C-235.922 656.008 -227.956 658.05 -218.968 658.05C-210.388 658.05 -202.422 656.008 -195.068 651.922C-188.123 647.428 -182.403 641.709 -177.909 634.763C-173.824 627.41 -171.781 619.443 -171.781 610.864L-171.781 490.548C-171.781 476.446 -160.349 465.014 -146.247 465.014H-120.101C-105.999 465.014 -94.5667 476.446 -94.5667 490.548L-94.5667 607.187C-94.5667 616.583 -92.1154 625.163 -87.213 632.925C-82.719 640.687 -76.5908 646.815 -68.8285 651.309C-61.0662 655.803 -52.4868 658.05 -43.0904 658.05C-33.6939 658.05 -25.1145 655.803 -17.3522 651.309C-9.5899 646.815 -3.46176 640.687 1.03223 632.925C5.52618 625.163 7.77316 616.583 7.77316 607.187V469.712C7.77316 455.61 19.2051 444.178 33.307 444.178H59.454C73.556 444.178 84.9879 455.61 84.9879 469.712V617.605Z" fill="#D9D9D9" fill-opacity="0.17"/>
<path d="M-343.989 392.397H-266.774H-84.1562C18.7083 392.397 84.9627 325.899 85 221.215C85.0209 162.606 59.4587 119.04 59.4587 119.04C73.56 119.04 84.9907 107.607 84.9883 93.5062L84.9697 -13.5318L-2.04987 -43.6152L-2.03915 35.74H-84.1562H-318.455C-332.557 35.74 -343.989 47.1719 -343.989 61.2739V97.8385C-343.989 111.94 -332.557 123.372 -318.455 123.372H-78.6408C-6.97455 123.372 8.39816 168.448 8.39816 221.215C8.39816 273.158 -27.1221 304.765 -78.6408 304.765H-318.455C-332.557 304.765 -343.989 316.197 -343.989 330.299V392.397Z" fill="#D9D9D9" fill-opacity="0.17"/>
<path fill-rule="evenodd" clip-rule="evenodd" d="M-343.996 -308.096C-343.996 -319.015 -337.054 -328.726 -326.722 -332.258L51.183 -461.447C67.7523 -467.112 84.9767 -454.797 84.9765 -437.286L84.9728 -209.136C84.9726 -191.956 68.3465 -179.678 51.9263 -184.733L15.9809 -195.799C5.26901 -199.096 -2.04016 -208.994 -2.04034 -220.202L-2.04199 -317.968C-2.04227 -335.369 -19.0659 -347.672 -35.5875 -342.212L-254.963 -269.719C-265.422 -266.263 -272.485 -256.489 -272.485 -245.474V-238.395L68.0864 -115.782C78.2171 -112.135 84.9712 -102.524 84.971 -91.757L84.9697 -13.5318L-2.04987 -43.6152L-327.598 -168.279C-337.477 -172.062 -344 -181.545 -344 -192.124C-344 -216.607 -343.999 -237.6 -343.998 -258.111C-343.997 -274.566 -343.997 -290.71 -343.996 -308.096Z" fill="#D9D9D9" fill-opacity="0.17"/>
<g filter="url(#filter0_d_0_1)">
<mask id="path-2-inside-1_0_1" fill="white">
<path d="M-81 -112.951C-81 -122.367 -73.367 -130 -63.9512 -130H234.402C243.818 -130 251.451 -122.367 251.451 -112.951V185.402C251.451 194.818 243.818 202.451 234.402 202.451H-63.9512C-73.367 202.451 -81 194.818 -81 185.402V-112.951Z"/>
</mask>
<path d="M-81 -112.951C-81 -122.367 -73.367 -130 -63.9512 -130H234.402C243.818 -130 251.451 -122.367 251.451 -112.951V185.402C251.451 194.818 243.818 202.451 234.402 202.451H-63.9512C-73.367 202.451 -81 194.818 -81 185.402V-112.951Z" fill="white"/>
<path d="M-81 -130H251.451H-81ZM251.451 185.402C251.451 195.371 243.371 203.451 233.402 203.451H-62.9512C-72.9193 203.451 -81 195.371 -81 185.402C-81 194.266 -73.367 201.451 -63.9512 201.451H234.402C243.818 201.451 251.451 194.266 251.451 185.402ZM-81 202.451V-130V202.451ZM251.451 -130V202.451V-130Z" fill="#8F8F8F" mask="url(#path-2-inside-1_0_1)"/>
<path d="M13.3017 0C15.9814 0 18.3157 0.524885 20.3048 1.57466C22.2938 2.62443 23.8408 4.17146 24.9459 6.21575C26.0509 8.26004 26.6034 10.7325 26.6034 13.6332V29.5041H19.8904V22.5424H6.63013V29.5041H0V13.6332C0 10.7325 0.552511 8.26004 1.65753 6.21575C2.76255 4.17146 4.30959 2.62443 6.29862 1.57466C8.28766 0.524885 10.622 0 13.3017 0ZM19.8904 17.1555V13.0116C19.8904 10.6082 19.2964 8.79874 18.1085 7.58321C16.9206 6.34006 15.3046 5.71849 13.2603 5.71849C11.1883 5.71849 9.55844 6.34006 8.37054 7.58321C7.21027 8.79874 6.63013 10.6082 6.63013 13.0116V17.1555H19.8904Z" fill="#003366"/>
<path d="M42.4325 0.497258V29.5041H35.7195V5.88424H29.9181V0.497258H42.4325Z" fill="#003366"/>
<path d="M58.6598 0.497258V29.5041H51.9468V5.88424H46.1455V0.497258H58.6598Z" fill="#003366"/>
<path d="M87.5258 7.21027V25.7746C87.5258 29.8632 86.4899 32.902 84.4179 34.8911C82.346 36.8801 79.3348 37.8746 75.3844 37.8746C73.2849 37.8746 71.2958 37.6122 69.4173 37.0873C67.5664 36.5624 66.0055 35.8027 64.7347 34.8082L67.3039 30.1671C68.2432 30.9406 69.3896 31.5484 70.7433 31.9904C72.0969 32.4324 73.4644 32.6534 74.8457 32.6534C77.0005 32.6534 78.5751 32.1561 79.5697 31.1616C80.5642 30.1671 81.0614 28.6477 81.0614 26.6034V25.8575C80.2327 26.6863 79.252 27.3217 78.1193 27.7637C76.9867 28.2057 75.7711 28.4267 74.4727 28.4267C71.5444 28.4267 69.2239 27.5979 67.5111 25.9404C65.7983 24.2552 64.9419 21.7413 64.9419 18.3986V7.21027H71.4063V17.4455C71.4063 21.0645 72.9119 22.874 75.9231 22.874C77.4701 22.874 78.7133 22.3767 79.6525 21.3822C80.5918 20.36 81.0614 18.8544 81.0614 16.8654V7.21027H87.5258Z" fill="#003366"/>
<path d="M0.24863 35.0292H13.426C16.5753 35.0292 19.3517 35.637 21.7551 36.8525C24.1862 38.0404 26.0647 39.7255 27.3907 41.908C28.7444 44.0904 29.4212 46.6319 29.4212 49.5326C29.4212 52.4333 28.7444 54.9748 27.3907 57.1573C26.0647 59.3397 24.1862 61.0386 21.7551 62.2542C19.3517 63.4421 16.5753 64.036 13.426 64.036H0.24863V35.0292ZM13.0945 58.5247C15.9952 58.5247 18.3019 57.7236 20.0147 56.1213C21.7551 54.4914 22.6253 52.2952 22.6253 49.5326C22.6253 46.77 21.7551 44.5876 20.0147 42.9853C18.3019 41.3554 15.9952 40.5405 13.0945 40.5405H6.96164V58.5247H13.0945Z" fill="#003366"/>
<path d="M45.2578 59.1877C46.418 59.1877 47.4402 59.022 48.3242 58.6905C49.2358 58.3313 50.0784 57.7788 50.8519 57.0329L54.2913 60.7624C52.1918 63.1658 49.1253 64.3675 45.092 64.3675C42.5781 64.3675 40.3542 63.8841 38.4204 62.9172C36.4867 61.9227 34.9949 60.5552 33.9451 58.8148C32.8953 57.0744 32.3704 55.0991 32.3704 52.8891C32.3704 50.7067 32.8815 48.7453 33.9037 47.0049C34.9534 45.2368 36.3762 43.8694 38.1718 42.9025C39.9951 41.9079 42.0394 41.4107 44.3047 41.4107C46.4319 41.4107 48.3656 41.8665 50.106 42.7781C51.8465 43.6622 53.2277 44.9606 54.2499 46.6734C55.2997 48.3585 55.8245 50.3614 55.8245 52.6819L39.3321 55.8727C39.8017 56.9777 40.5338 57.8064 41.5283 58.359C42.5505 58.9115 43.7936 59.1877 45.2578 59.1877ZM44.3047 46.3004C42.6748 46.3004 41.3487 46.8253 40.3266 47.8751C39.3045 48.9248 38.7658 50.3752 38.7105 52.2261L49.5674 50.1127C49.2635 48.9525 48.6419 48.027 47.7026 47.3364C46.7634 46.6457 45.6307 46.3004 44.3047 46.3004Z" fill="#003366"/>
<path d="M67.6701 64.3675C65.8192 64.3675 64.0097 64.1465 62.2416 63.7045C60.4736 63.2349 59.0647 62.6547 58.0149 61.9641L60.1697 57.323C61.1642 57.9584 62.366 58.4833 63.7749 58.8977C65.1838 59.2844 66.565 59.4778 67.9187 59.4778C70.6536 59.4778 72.0211 58.801 72.0211 57.4473C72.0211 56.8119 71.6481 56.3561 70.9023 56.0798C70.1564 55.8036 69.0099 55.5688 67.4629 55.3754C65.6396 55.0991 64.134 54.7814 62.9461 54.4223C61.7582 54.0632 60.7222 53.4278 59.8382 52.5162C58.9818 51.6045 58.5536 50.3061 58.5536 48.621C58.5536 47.2121 58.9542 45.9689 59.7553 44.8915C60.5841 43.7865 61.772 42.9301 63.319 42.3223C64.8937 41.7146 66.7446 41.4107 68.8718 41.4107C70.4464 41.4107 72.0073 41.5903 73.5543 41.9494C75.129 42.2809 76.4274 42.7505 77.4495 43.3583L75.2947 47.9579C73.3333 46.8529 71.1923 46.3004 68.8718 46.3004C67.4905 46.3004 66.4545 46.4938 65.7639 46.8805C65.0733 47.2673 64.7279 47.7646 64.7279 48.3723C64.7279 49.063 65.1009 49.5464 65.8468 49.8227C66.5927 50.0989 67.7806 50.3614 69.4105 50.61C71.2338 50.9139 72.7255 51.2454 73.8858 51.6045C75.0461 51.936 76.0544 52.5576 76.9108 53.4692C77.7672 54.3809 78.1954 55.6517 78.1954 57.2816C78.1954 58.6628 77.781 59.8922 76.9522 60.9696C76.1235 62.047 74.908 62.8895 73.3057 63.4973C71.731 64.0774 69.8525 64.3675 67.6701 64.3675Z" fill="#003366"/>
<path d="M82.1838 41.7422H88.6482V64.036H82.1838V41.7422Z" fill="#003366"/>
<path d="M117.646 41.7422V60.3066C117.646 64.3951 116.582 67.434 114.455 69.423C112.328 71.412 109.22 72.4066 105.132 72.4066C102.977 72.4066 100.933 72.1441 98.9987 71.6192C97.0649 71.0943 95.4627 70.3346 94.1919 69.3401L96.7611 64.699C97.7003 65.4725 98.8882 66.0803 100.325 66.5223C101.761 66.9919 103.198 67.2268 104.634 67.2268C106.872 67.2268 108.516 66.7157 109.565 65.6935C110.643 64.699 111.182 63.1796 111.182 61.1353V60.1822C109.496 62.0332 107.148 62.9586 104.137 62.9586C102.093 62.9586 100.214 62.5166 98.5015 61.6326C96.8163 60.7209 95.4765 59.4502 94.482 57.8203C93.4874 56.1904 92.9902 54.3118 92.9902 52.1846C92.9902 50.0575 93.4874 48.1789 94.482 46.549C95.4765 44.9191 96.8163 43.6622 98.5015 42.7781C100.214 41.8665 102.093 41.4107 104.137 41.4107C107.369 41.4107 109.828 42.4743 111.513 44.6014V41.7422H117.646ZM105.422 57.6545C107.134 57.6545 108.53 57.1572 109.607 56.1627C110.712 55.1406 111.264 53.8146 111.264 52.1846C111.264 50.5547 110.712 49.2425 109.607 48.248C108.53 47.2259 107.134 46.7148 105.422 46.7148C103.709 46.7148 102.3 47.2259 101.195 48.248C100.09 49.2425 99.5374 50.5547 99.5374 52.1846C99.5374 53.8146 100.09 55.1406 101.195 56.1627C102.3 57.1572 103.709 57.6545 105.422 57.6545Z" fill="#003366"/>
<path d="M137.213 41.4107C139.976 41.4107 142.199 42.2394 143.885 43.897C145.597 45.5545 146.454 48.0132 146.454 51.273V64.036H139.989V52.2675C139.989 50.4995 139.603 49.1873 138.829 48.3309C138.056 47.4469 136.937 47.0049 135.473 47.0049C133.843 47.0049 132.544 47.5159 131.577 48.5381C130.61 49.5326 130.127 51.0244 130.127 53.0134V64.036H123.663V41.7422H129.837V44.3528C130.693 43.4135 131.757 42.6953 133.028 42.198C134.298 41.6731 135.694 41.4107 137.213 41.4107Z" fill="#003366"/>
<path d="M159.814 64.3675C157.963 64.3675 156.153 64.1465 154.385 63.7045C152.617 63.2349 151.208 62.6547 150.159 61.9641L152.313 57.323C153.308 57.9584 154.51 58.4833 155.918 58.8977C157.327 59.2844 158.709 59.4778 160.062 59.4778C162.797 59.4778 164.165 58.801 164.165 57.4473C164.165 56.8119 163.792 56.3561 163.046 56.0798C162.3 55.8036 161.154 55.5688 159.606 55.3754C157.783 55.0991 156.278 54.7814 155.09 54.4223C153.902 54.0632 152.866 53.4278 151.982 52.5162C151.125 51.6045 150.697 50.3061 150.697 48.621C150.697 47.2121 151.098 45.9689 151.899 44.8915C152.728 43.7865 153.916 42.9301 155.463 42.3223C157.037 41.7146 158.888 41.4107 161.015 41.4107C162.59 41.4107 164.151 41.5903 165.698 41.9494C167.273 42.2809 168.571 42.7505 169.593 43.3583L167.438 47.9579C165.477 46.8529 163.336 46.3004 161.015 46.3004C159.634 46.3004 158.598 46.4938 157.908 46.8805C157.217 47.2673 156.872 47.7646 156.872 48.3723C156.872 49.063 157.244 49.5464 157.99 49.8227C158.736 50.0989 159.924 50.3614 161.554 50.61C163.377 50.9139 164.869 51.2454 166.029 51.6045C167.19 51.936 168.198 52.5576 169.054 53.4692C169.911 54.3809 170.339 55.6517 170.339 57.2816C170.339 58.6628 169.925 59.8922 169.096 60.9696C168.267 62.047 167.052 62.8895 165.449 63.4973C163.875 64.0774 161.996 64.3675 159.814 64.3675Z" fill="#003366"/>
<path d="M85.0845 37.5089C83.8966 37.5089 82.9297 37.1635 82.1838 36.4729C81.4379 35.7823 81.065 34.9259 81.065 33.9037C81.065 32.8816 81.4379 32.0252 82.1838 31.3345C82.9297 30.6439 83.8966 30.2986 85.0845 30.2986C86.2724 30.2986 87.2393 30.6301 87.9852 31.2931C88.7311 31.9561 89.104 32.7849 89.104 33.7794C89.104 34.8568 88.7311 35.7546 87.9852 36.4729C87.2393 37.1635 86.2724 37.5089 85.0845 37.5089Z" fill="#FF6600"/>
</g>
</g>
<defs>
<filter id="filter0_d_0_1" x="-111" y="-151.476" width="392.451" height="392.451" filterUnits="userSpaceOnUse" color-interpolation-filters="sRGB">
<feFlood flood-opacity="0" result="BackgroundImageFix"/>
<feColorMatrix in="SourceAlpha" type="matrix" values="0 0 0 0 0 0 0 0 0 0 0 0 0 0 0 0 0 0 127 0" result="hardAlpha"/>
<feOffset dy="8.52439"/>
<feGaussianBlur stdDeviation="15"/>
<feComposite in2="hardAlpha" operator="out"/>
<feColorMatrix type="matrix" values="0 0 0 0 0 0 0 0 0 0 0 0 0 0 0 0 0 0 0.09 0"/>
<feBlend mode="normal" in2="BackgroundImageFix" result="effect1_dropShadow_0_1"/>
<feBlend mode="normal" in="SourceGraphic" in2="effect1_dropShadow_0_1" result="shape"/>
</filter>
<clipPath id="clip0_0_1">
<rect width="1440" height="1505" fill="white" transform="translate(-266 -573)"/>
</clipPath>
</defs>
</svg>
