<svg width="308" height="84" viewBox="0 0 308 84" fill="none" xmlns="http://www.w3.org/2000/svg">
<path d="M12.1967 12.1269V29.9874H34.7338V39.2072H12.1967V57.4239H40.7912V67H0.17091V2.59543H40.7912V12.1269H12.1967ZM60.633 0.813839V67H49.6317V0.813839H60.633ZM132.717 57.1122V67H94.992V2.59543H106.973V57.1122H132.717ZM176.994 21.3022V67H170.268C168.813 67 167.893 66.3319 167.507 64.9957L166.75 61.3434C164.879 63.2438 162.815 64.7879 160.559 65.9756C158.302 67.1336 155.645 67.7126 152.586 67.7126C150.092 67.7126 147.88 67.2969 145.95 66.4655C144.049 65.6044 142.446 64.4018 141.139 62.8578C139.833 61.3138 138.838 59.4876 138.155 57.3794C137.502 55.2415 137.175 52.8957 137.175 50.3421V21.3022H148.177V50.3421C148.177 53.1333 148.815 55.3009 150.092 56.8449C151.398 58.3593 153.343 59.1165 155.927 59.1165C157.827 59.1165 159.609 58.7007 161.271 57.8693C162.934 57.0082 164.508 55.8354 165.993 54.3507V21.3022H176.994ZM204.604 43.0376C205.97 43.0376 207.158 42.8594 208.168 42.5031C209.177 42.1171 210.009 41.5975 210.662 40.9442C211.345 40.291 211.85 39.5041 212.176 38.5836C212.533 37.6631 212.711 36.6535 212.711 35.5549C212.711 33.2982 212.028 31.5166 210.662 30.2101C209.326 28.8739 207.307 28.2058 204.604 28.2058C201.902 28.2058 199.868 28.8739 198.503 30.2101C197.166 31.5166 196.498 33.2982 196.498 35.5549C196.498 36.6238 196.662 37.6186 196.988 38.5391C197.344 39.4595 197.849 40.2613 198.503 40.9442C199.185 41.5975 200.032 42.1171 201.041 42.5031C202.081 42.8594 203.268 43.0376 204.604 43.0376ZM217.031 69.0488C217.031 68.158 216.764 67.4306 216.229 66.8664C215.695 66.3022 214.967 65.8717 214.047 65.5747C213.126 65.2481 212.043 65.0106 210.795 64.8621C209.578 64.7136 208.272 64.6097 206.876 64.5503C205.51 64.4612 204.085 64.387 202.6 64.3276C201.145 64.2682 199.72 64.1495 198.324 63.9713C197.107 64.6542 196.112 65.456 195.34 66.3764C194.598 67.2969 194.227 68.3659 194.227 69.5833C194.227 70.385 194.42 71.1274 194.806 71.8103C195.221 72.5229 195.86 73.1316 196.721 73.6364C197.612 74.1412 198.755 74.5272 200.15 74.7945C201.546 75.0914 203.253 75.2399 205.273 75.2399C207.321 75.2399 209.088 75.0766 210.573 74.7499C212.057 74.453 213.275 74.0224 214.225 73.4583C215.205 72.9238 215.918 72.2705 216.363 71.4985C216.808 70.7562 217.031 69.9396 217.031 69.0488ZM227.988 22.861V26.9587C227.988 28.2652 227.201 29.0669 225.627 29.3639L221.53 30.121C222.153 31.6948 222.465 33.417 222.465 35.2877C222.465 37.5443 222.005 39.5932 221.084 41.4341C220.193 43.2454 218.946 44.7895 217.343 46.0663C215.739 47.3431 213.839 48.3378 211.642 49.0505C209.474 49.7334 207.128 50.0749 204.604 50.0749C203.714 50.0749 202.853 50.0303 202.021 49.9413C201.19 49.8522 200.373 49.7334 199.571 49.5849C198.146 50.446 197.434 51.4111 197.434 52.48C197.434 53.4005 197.849 54.0835 198.681 54.5289C199.542 54.9446 200.67 55.2415 202.066 55.4196C203.461 55.5978 205.05 55.7166 206.831 55.776C208.613 55.8057 210.439 55.8947 212.31 56.0432C214.181 56.1917 216.007 56.4589 217.788 56.8449C219.57 57.2012 221.158 57.7803 222.554 58.582C223.95 59.3837 225.063 60.4823 225.894 61.8779C226.756 63.2438 227.186 65.0106 227.186 67.1782C227.186 69.1973 226.681 71.157 225.672 73.0574C224.692 74.9578 223.252 76.6503 221.351 78.135C219.481 79.6196 217.165 80.8073 214.403 81.6981C211.671 82.6186 208.554 83.0789 205.05 83.0789C201.605 83.0789 198.606 82.7374 196.053 82.0545C193.499 81.4012 191.376 80.5104 189.684 79.3821C187.991 78.2834 186.729 77.0066 185.898 75.5516C185.066 74.0967 184.651 72.5823 184.651 71.0086C184.651 68.8707 185.289 67.0891 186.566 65.6638C187.872 64.2088 189.654 63.0508 191.911 62.1897C190.693 61.5661 189.728 60.7347 189.016 59.6955C188.303 58.6562 187.947 57.2903 187.947 55.5978C187.947 54.9149 188.065 54.2171 188.303 53.5044C188.57 52.7621 188.941 52.0346 189.416 51.322C189.921 50.6093 190.545 49.9413 191.287 49.3177C192.029 48.6644 192.905 48.0854 193.915 47.5806C191.599 46.3335 189.773 44.6707 188.437 42.5922C187.13 40.5137 186.477 38.0788 186.477 35.2877C186.477 33.031 186.922 30.997 187.813 29.1857C188.733 27.3447 189.995 25.7858 191.599 24.509C193.232 23.2025 195.147 22.2078 197.344 21.5249C199.571 20.8419 201.991 20.5004 204.604 20.5004C206.564 20.5004 208.405 20.7083 210.127 21.124C211.85 21.51 213.423 22.089 214.849 22.861H227.988ZM259.105 47.4916C255.928 47.64 253.256 47.9221 251.088 48.3378C248.92 48.7238 247.183 49.2286 245.877 49.8522C244.57 50.4757 243.635 51.2032 243.071 52.0346C242.507 52.866 242.225 53.7717 242.225 54.7516C242.225 56.6816 242.789 58.0623 243.917 58.8938C245.075 59.7252 246.575 60.1409 248.416 60.1409C250.672 60.1409 252.617 59.74 254.25 58.9383C255.913 58.1069 257.531 56.8598 259.105 55.1969V47.4916ZM233.896 27.6713C239.151 22.861 245.476 20.4559 252.87 20.4559C255.542 20.4559 257.932 20.9013 260.041 21.7921C262.149 22.6532 263.93 23.8706 265.385 25.4444C266.84 26.9884 267.939 28.8442 268.681 31.0118C269.453 33.1794 269.839 35.5549 269.839 38.1382V67H264.851C263.812 67 263.01 66.8515 262.446 66.5546C261.881 66.228 261.436 65.5896 261.109 64.6394L260.13 61.3434C258.972 62.3827 257.843 63.3032 256.745 64.1049C255.646 64.8769 254.503 65.5302 253.315 66.0647C252.127 66.5991 250.85 67 249.485 67.2672C248.148 67.5642 246.664 67.7126 245.031 67.7126C243.101 67.7126 241.319 67.4602 239.686 66.9555C238.053 66.421 236.642 65.6341 235.455 64.5949C234.267 63.5556 233.346 62.2639 232.693 60.7199C232.04 59.1758 231.713 57.3794 231.713 55.3306C231.713 54.1725 231.906 53.0293 232.292 51.901C232.678 50.743 233.302 49.6443 234.163 48.6051C235.054 47.5658 236.197 46.5859 237.592 45.6654C238.988 44.7449 240.695 43.9432 242.715 43.2603C244.763 42.5773 247.139 42.028 249.841 41.6123C252.543 41.1669 255.631 40.8997 259.105 40.8106V38.1382C259.105 35.0798 258.452 32.8231 257.145 31.3682C255.839 29.8835 253.953 29.1412 251.489 29.1412C249.707 29.1412 248.223 29.349 247.035 29.7647C245.877 30.1804 244.852 30.6555 243.962 31.19C243.071 31.6948 242.254 32.155 241.512 32.5707C240.799 32.9864 239.998 33.1943 239.107 33.1943C238.335 33.1943 237.682 33.0013 237.147 32.6153C236.613 32.1996 236.182 31.7245 235.855 31.19L233.896 27.6713ZM290.578 29.2302C292.003 26.4985 293.696 24.3606 295.656 22.8165C297.615 21.2428 299.931 20.4559 302.604 20.4559C304.712 20.4559 306.405 20.9161 307.681 21.8366L306.969 30.0765C306.82 30.611 306.598 30.997 306.301 31.2345C306.033 31.4424 305.662 31.5463 305.187 31.5463C304.742 31.5463 304.074 31.4721 303.183 31.3236C302.322 31.1751 301.476 31.1009 300.644 31.1009C299.427 31.1009 298.343 31.2791 297.393 31.6354C296.443 31.9917 295.581 32.5113 294.809 33.1943C294.067 33.8475 293.399 34.6492 292.805 35.5994C292.241 36.5496 291.706 37.6334 291.202 38.8508V67H280.2V21.3022H286.659C287.787 21.3022 288.574 21.51 289.019 21.9257C289.465 22.3117 289.762 23.0244 289.91 24.0636L290.578 29.2302Z" fill="#350177"/>
</svg>
