<svg width="299" height="12" viewBox="0 0 299 12" fill="none" xmlns="http://www.w3.org/2000/svg">
<path d="M6.87 1.9325C6.825 2.0075 6.775 2.065 6.72 2.105C6.67 2.14 6.6075 2.1575 6.5325 2.1575C6.4475 2.1575 6.3475 2.115 6.2325 2.03C6.1175 1.945 5.9725 1.8525 5.7975 1.7525C5.6275 1.6475 5.42 1.5525 5.175 1.4675C4.935 1.3825 4.6425 1.34 4.2975 1.34C3.9725 1.34 3.685 1.385 3.435 1.475C3.19 1.56 2.9825 1.6775 2.8125 1.8275C2.6475 1.9775 2.5225 2.155 2.4375 2.36C2.3525 2.56 2.31 2.7775 2.31 3.0125C2.31 3.3125 2.3825 3.5625 2.5275 3.7625C2.6775 3.9575 2.8725 4.125 3.1125 4.265C3.3575 4.405 3.6325 4.5275 3.9375 4.6325C4.2475 4.7325 4.5625 4.8375 4.8825 4.9475C5.2075 5.0575 5.5225 5.1825 5.8275 5.3225C6.1375 5.4575 6.4125 5.63 6.6525 5.84C6.8975 6.05 7.0925 6.3075 7.2375 6.6125C7.3875 6.9175 7.4625 7.2925 7.4625 7.7375C7.4625 8.2075 7.3825 8.65 7.2225 9.065C7.0625 9.475 6.8275 9.8325 6.5175 10.1375C6.2125 10.4425 5.835 10.6825 5.385 10.8575C4.94 11.0325 4.4325 11.12 3.8625 11.12C3.1625 11.12 2.5275 10.995 1.9575 10.745C1.3875 10.49 0.9 10.1475 0.495 9.7175L0.915 9.0275C0.955 8.9725 1.0025 8.9275 1.0575 8.8925C1.1175 8.8525 1.1825 8.8325 1.2525 8.8325C1.3175 8.8325 1.39 8.86 1.47 8.915C1.555 8.965 1.65 9.03 1.755 9.11C1.86 9.19 1.98 9.2775 2.115 9.3725C2.25 9.4675 2.4025 9.555 2.5725 9.635C2.7475 9.715 2.945 9.7825 3.165 9.8375C3.385 9.8875 3.6325 9.9125 3.9075 9.9125C4.2525 9.9125 4.56 9.865 4.83 9.77C5.1 9.675 5.3275 9.5425 5.5125 9.3725C5.7025 9.1975 5.8475 8.99 5.9475 8.75C6.0475 8.51 6.0975 8.2425 6.0975 7.9475C6.0975 7.6225 6.0225 7.3575 5.8725 7.1525C5.7275 6.9425 5.535 6.7675 5.295 6.6275C5.055 6.4875 4.78 6.37 4.47 6.275C4.16 6.175 3.845 6.075 3.525 5.975C3.205 5.87 2.89 5.75 2.58 5.615C2.27 5.48 1.995 5.305 1.755 5.09C1.515 4.875 1.32 4.6075 1.17 4.2875C1.025 3.9625 0.9525 3.5625 0.9525 3.0875C0.9525 2.7075 1.025 2.34 1.17 1.985C1.32 1.63 1.535 1.315 1.815 1.04C2.1 0.765 2.4475 0.545 2.8575 0.38C3.2725 0.214999 3.7475 0.132499 4.2825 0.132499C4.8825 0.132499 5.4275 0.227499 5.9175 0.4175C6.4125 0.6075 6.8475 0.8825 7.2225 1.2425L6.87 1.9325ZM17.7895 5.825C18.2045 5.825 18.5695 5.77 18.8845 5.66C19.2045 5.55 19.472 5.3975 19.687 5.2025C19.907 5.0025 20.072 4.765 20.182 4.49C20.292 4.215 20.347 3.9125 20.347 3.5825C20.347 2.8975 20.1345 2.3625 19.7095 1.9775C19.2895 1.5925 18.6495 1.4 17.7895 1.4H16.0645V5.825H17.7895ZM17.7895 0.252499C18.4695 0.252499 19.0595 0.3325 19.5595 0.4925C20.0645 0.647499 20.482 0.869999 20.812 1.16C21.142 1.45 21.387 1.8 21.547 2.21C21.712 2.62 21.7945 3.0775 21.7945 3.5825C21.7945 4.0825 21.707 4.54 21.532 4.955C21.357 5.37 21.0995 5.7275 20.7595 6.0275C20.4245 6.3275 20.007 6.5625 19.507 6.7325C19.012 6.8975 18.4395 6.98 17.7895 6.98H16.0645V11H14.617V0.252499H17.7895ZM33.6863 7.01L31.9988 2.6375C31.9488 2.5075 31.8963 2.3575 31.8413 2.1875C31.7863 2.0125 31.7338 1.8275 31.6838 1.6325C31.5788 2.0375 31.4713 2.375 31.3613 2.645L29.6738 7.01H33.6863ZM36.7163 11H35.5913C35.4613 11 35.3563 10.9675 35.2763 10.9025C35.1963 10.8375 35.1363 10.755 35.0963 10.655L34.0913 8.06H29.2688L28.2638 10.655C28.2338 10.745 28.1763 10.825 28.0913 10.895C28.0063 10.965 27.9013 11 27.7763 11H26.6513L30.9488 0.252499H32.4188L36.7163 11ZM51.9376 0.252499V11H51.2101C51.0951 11 50.9976 10.98 50.9176 10.94C50.8426 10.9 50.7676 10.8325 50.6926 10.7375L44.4751 2.6375C44.4851 2.7625 44.4926 2.885 44.4976 3.005C44.5026 3.125 44.5051 3.2375 44.5051 3.3425V11H43.2301V0.252499H43.9801C44.0451 0.252499 44.1001 0.257499 44.1451 0.267499C44.1901 0.272499 44.2301 0.284999 44.2651 0.304999C44.3001 0.319999 44.3351 0.344999 44.3701 0.38C44.4051 0.41 44.4426 0.449999 44.4826 0.499999L50.7001 8.5925C50.6901 8.4625 50.6801 8.3375 50.6701 8.2175C50.6651 8.0925 50.6626 7.975 50.6626 7.865V0.252499H51.9376ZM61.2402 11H59.7852V0.252499H61.2402V11ZM74.5868 1.9325C74.5418 2.0075 74.4918 2.065 74.4368 2.105C74.3868 2.14 74.3243 2.1575 74.2493 2.1575C74.1643 2.1575 74.0643 2.115 73.9493 2.03C73.8343 1.945 73.6893 1.8525 73.5143 1.7525C73.3443 1.6475 73.1368 1.5525 72.8918 1.4675C72.6518 1.3825 72.3593 1.34 72.0143 1.34C71.6893 1.34 71.4018 1.385 71.1518 1.475C70.9068 1.56 70.6993 1.6775 70.5293 1.8275C70.3643 1.9775 70.2393 2.155 70.1543 2.36C70.0693 2.56 70.0268 2.7775 70.0268 3.0125C70.0268 3.3125 70.0993 3.5625 70.2443 3.7625C70.3943 3.9575 70.5893 4.125 70.8293 4.265C71.0743 4.405 71.3493 4.5275 71.6543 4.6325C71.9643 4.7325 72.2793 4.8375 72.5993 4.9475C72.9243 5.0575 73.2393 5.1825 73.5443 5.3225C73.8543 5.4575 74.1293 5.63 74.3693 5.84C74.6143 6.05 74.8093 6.3075 74.9543 6.6125C75.1043 6.9175 75.1793 7.2925 75.1793 7.7375C75.1793 8.2075 75.0993 8.65 74.9393 9.065C74.7793 9.475 74.5443 9.8325 74.2343 10.1375C73.9293 10.4425 73.5518 10.6825 73.1018 10.8575C72.6568 11.0325 72.1493 11.12 71.5793 11.12C70.8793 11.12 70.2443 10.995 69.6743 10.745C69.1043 10.49 68.6168 10.1475 68.2118 9.7175L68.6318 9.0275C68.6718 8.9725 68.7193 8.9275 68.7743 8.8925C68.8343 8.8525 68.8993 8.8325 68.9693 8.8325C69.0343 8.8325 69.1068 8.86 69.1868 8.915C69.2718 8.965 69.3668 9.03 69.4718 9.11C69.5768 9.19 69.6968 9.2775 69.8318 9.3725C69.9668 9.4675 70.1193 9.555 70.2893 9.635C70.4643 9.715 70.6618 9.7825 70.8818 9.8375C71.1018 9.8875 71.3493 9.9125 71.6243 9.9125C71.9693 9.9125 72.2768 9.865 72.5468 9.77C72.8168 9.675 73.0443 9.5425 73.2293 9.3725C73.4193 9.1975 73.5643 8.99 73.6643 8.75C73.7643 8.51 73.8143 8.2425 73.8143 7.9475C73.8143 7.6225 73.7393 7.3575 73.5893 7.1525C73.4443 6.9425 73.2518 6.7675 73.0118 6.6275C72.7718 6.4875 72.4968 6.37 72.1868 6.275C71.8768 6.175 71.5618 6.075 71.2418 5.975C70.9218 5.87 70.6068 5.75 70.2968 5.615C69.9868 5.48 69.7118 5.305 69.4718 5.09C69.2318 4.875 69.0368 4.6075 68.8868 4.2875C68.7418 3.9625 68.6693 3.5625 68.6693 3.0875C68.6693 2.7075 68.7418 2.34 68.8868 1.985C69.0368 1.63 69.2518 1.315 69.5318 1.04C69.8168 0.765 70.1643 0.545 70.5743 0.38C70.9893 0.214999 71.4643 0.132499 71.9993 0.132499C72.5993 0.132499 73.1443 0.227499 73.6343 0.4175C74.1293 0.6075 74.5643 0.8825 74.9393 1.2425L74.5868 1.9325ZM91.0413 0.252499V11H89.5863V6.11H83.7888V11H82.3338V0.252499H83.7888V5.045H89.5863V0.252499H91.0413ZM110.804 5.4575C111.224 5.4575 111.594 5.4075 111.914 5.3075C112.239 5.2025 112.509 5.0575 112.724 4.8725C112.944 4.6825 113.109 4.4575 113.219 4.1975C113.329 3.9375 113.384 3.65 113.384 3.335C113.384 2.695 113.174 2.2125 112.754 1.8875C112.334 1.5625 111.704 1.4 110.864 1.4H109.274V5.4575H110.804ZM115.769 11H114.479C114.214 11 114.019 10.8975 113.894 10.6925L111.104 6.8525C111.019 6.7325 110.927 6.6475 110.827 6.5975C110.732 6.5425 110.582 6.515 110.377 6.515H109.274V11H107.827V0.252499H110.864C111.544 0.252499 112.132 0.322499 112.627 0.462499C113.122 0.5975 113.529 0.795 113.849 1.055C114.174 1.315 114.414 1.63 114.569 2C114.724 2.365 114.802 2.775 114.802 3.23C114.802 3.61 114.742 3.965 114.622 4.295C114.502 4.625 114.327 4.9225 114.097 5.1875C113.872 5.4475 113.594 5.67 113.264 5.855C112.939 6.04 112.569 6.18 112.154 6.275C112.339 6.38 112.499 6.5325 112.634 6.7325L115.769 11ZM128.961 9.815L128.954 11H122.331V0.252499H128.954V1.4375H123.786V5.0075H127.971V6.1475H123.786V9.815H128.961ZM141.586 1.9325C141.541 2.0075 141.491 2.065 141.436 2.105C141.386 2.14 141.323 2.1575 141.248 2.1575C141.163 2.1575 141.063 2.115 140.948 2.03C140.833 1.945 140.688 1.8525 140.513 1.7525C140.343 1.6475 140.136 1.5525 139.891 1.4675C139.651 1.3825 139.358 1.34 139.013 1.34C138.688 1.34 138.401 1.385 138.151 1.475C137.906 1.56 137.698 1.6775 137.528 1.8275C137.363 1.9775 137.238 2.155 137.153 2.36C137.068 2.56 137.026 2.7775 137.026 3.0125C137.026 3.3125 137.098 3.5625 137.243 3.7625C137.393 3.9575 137.588 4.125 137.828 4.265C138.073 4.405 138.348 4.5275 138.653 4.6325C138.963 4.7325 139.278 4.8375 139.598 4.9475C139.923 5.0575 140.238 5.1825 140.543 5.3225C140.853 5.4575 141.128 5.63 141.368 5.84C141.613 6.05 141.808 6.3075 141.953 6.6125C142.103 6.9175 142.178 7.2925 142.178 7.7375C142.178 8.2075 142.098 8.65 141.938 9.065C141.778 9.475 141.543 9.8325 141.233 10.1375C140.928 10.4425 140.551 10.6825 140.101 10.8575C139.656 11.0325 139.148 11.12 138.578 11.12C137.878 11.12 137.243 10.995 136.673 10.745C136.103 10.49 135.616 10.1475 135.211 9.7175L135.631 9.0275C135.671 8.9725 135.718 8.9275 135.773 8.8925C135.833 8.8525 135.898 8.8325 135.968 8.8325C136.033 8.8325 136.106 8.86 136.186 8.915C136.271 8.965 136.366 9.03 136.471 9.11C136.576 9.19 136.696 9.2775 136.831 9.3725C136.966 9.4675 137.118 9.555 137.288 9.635C137.463 9.715 137.661 9.7825 137.881 9.8375C138.101 9.8875 138.348 9.9125 138.623 9.9125C138.968 9.9125 139.276 9.865 139.546 9.77C139.816 9.675 140.043 9.5425 140.228 9.3725C140.418 9.1975 140.563 8.99 140.663 8.75C140.763 8.51 140.813 8.2425 140.813 7.9475C140.813 7.6225 140.738 7.3575 140.588 7.1525C140.443 6.9425 140.251 6.7675 140.011 6.6275C139.771 6.4875 139.496 6.37 139.186 6.275C138.876 6.175 138.561 6.075 138.241 5.975C137.921 5.87 137.606 5.75 137.296 5.615C136.986 5.48 136.711 5.305 136.471 5.09C136.231 4.875 136.036 4.6075 135.886 4.2875C135.741 3.9625 135.668 3.5625 135.668 3.0875C135.668 2.7075 135.741 2.34 135.886 1.985C136.036 1.63 136.251 1.315 136.531 1.04C136.816 0.765 137.163 0.545 137.573 0.38C137.988 0.214999 138.463 0.132499 138.998 0.132499C139.598 0.132499 140.143 0.227499 140.633 0.4175C141.128 0.6075 141.563 0.8825 141.938 1.2425L141.586 1.9325ZM156.6 1.475H153.12V11H151.673V1.475H148.185V0.252499H156.6V1.475ZM167.948 7.01L166.26 2.6375C166.21 2.5075 166.158 2.3575 166.103 2.1875C166.048 2.0125 165.995 1.8275 165.945 1.6325C165.84 2.0375 165.733 2.375 165.623 2.645L163.935 7.01H167.948ZM170.978 11H169.853C169.723 11 169.618 10.9675 169.538 10.9025C169.458 10.8375 169.398 10.755 169.358 10.655L168.353 8.06H163.53L162.525 10.655C162.495 10.745 162.438 10.825 162.353 10.895C162.268 10.965 162.163 11 162.038 11H160.913L165.21 0.252499H166.68L170.978 11ZM181.39 9.845C181.835 9.845 182.233 9.77 182.583 9.62C182.933 9.47 183.228 9.26 183.468 8.99C183.713 8.72 183.898 8.3975 184.023 8.0225C184.153 7.6475 184.218 7.235 184.218 6.785V0.252499H185.665V6.785C185.665 7.405 185.565 7.98 185.365 8.51C185.17 9.04 184.888 9.5 184.518 9.89C184.153 10.275 183.705 10.5775 183.175 10.7975C182.645 11.0175 182.05 11.1275 181.39 11.1275C180.73 11.1275 180.135 11.0175 179.605 10.7975C179.075 10.5775 178.625 10.275 178.255 9.89C177.885 9.5 177.6 9.04 177.4 8.51C177.205 7.98 177.108 7.405 177.108 6.785V0.252499H178.555V6.7775C178.555 7.2275 178.618 7.64 178.743 8.015C178.873 8.39 179.058 8.7125 179.298 8.9825C179.543 9.2525 179.84 9.465 180.19 9.62C180.545 9.77 180.945 9.845 181.39 9.845ZM196.351 5.4575C196.771 5.4575 197.141 5.4075 197.461 5.3075C197.786 5.2025 198.056 5.0575 198.271 4.8725C198.491 4.6825 198.656 4.4575 198.766 4.1975C198.876 3.9375 198.931 3.65 198.931 3.335C198.931 2.695 198.721 2.2125 198.301 1.8875C197.881 1.5625 197.251 1.4 196.411 1.4H194.821V5.4575H196.351ZM201.316 11H200.026C199.761 11 199.566 10.8975 199.441 10.6925L196.651 6.8525C196.566 6.7325 196.473 6.6475 196.373 6.5975C196.278 6.5425 196.128 6.515 195.923 6.515H194.821V11H193.373V0.252499H196.411C197.091 0.252499 197.678 0.322499 198.173 0.462499C198.668 0.5975 199.076 0.795 199.396 1.055C199.721 1.315 199.961 1.63 200.116 2C200.271 2.365 200.348 2.775 200.348 3.23C200.348 3.61 200.288 3.965 200.168 4.295C200.048 4.625 199.873 4.9225 199.643 5.1875C199.418 5.4475 199.141 5.67 198.811 5.855C198.486 6.04 198.116 6.18 197.701 6.275C197.886 6.38 198.046 6.5325 198.181 6.7325L201.316 11ZM213.585 7.01L211.897 2.6375C211.847 2.5075 211.795 2.3575 211.74 2.1875C211.685 2.0125 211.632 1.8275 211.582 1.6325C211.477 2.0375 211.37 2.375 211.26 2.645L209.572 7.01H213.585ZM216.615 11H215.49C215.36 11 215.255 10.9675 215.175 10.9025C215.095 10.8375 215.035 10.755 214.995 10.655L213.99 8.06H209.167L208.162 10.655C208.132 10.745 208.075 10.825 207.99 10.895C207.905 10.965 207.8 11 207.675 11H206.55L210.847 0.252499H212.317L216.615 11ZM231.836 0.252499V11H231.109C230.994 11 230.896 10.98 230.816 10.94C230.741 10.9 230.666 10.8325 230.591 10.7375L224.374 2.6375C224.384 2.7625 224.391 2.885 224.396 3.005C224.401 3.125 224.404 3.2375 224.404 3.3425V11H223.129V0.252499H223.879C223.944 0.252499 223.999 0.257499 224.044 0.267499C224.089 0.272499 224.129 0.284999 224.164 0.304999C224.199 0.319999 224.234 0.344999 224.269 0.38C224.304 0.41 224.341 0.449999 224.381 0.499999L230.599 8.5925C230.589 8.4625 230.579 8.3375 230.569 8.2175C230.564 8.0925 230.561 7.975 230.561 7.865V0.252499H231.836ZM246.951 1.475H243.471V11H242.024V1.475H238.536V0.252499H246.951V1.475ZM267.339 7.01L265.652 2.6375C265.602 2.5075 265.549 2.3575 265.494 2.1875C265.439 2.0125 265.387 1.8275 265.337 1.6325C265.232 2.0375 265.124 2.375 265.014 2.645L263.327 7.01H267.339ZM270.369 11H269.244C269.114 11 269.009 10.9675 268.929 10.9025C268.849 10.8375 268.789 10.755 268.749 10.655L267.744 8.06H262.922L261.917 10.655C261.887 10.745 261.829 10.825 261.744 10.895C261.659 10.965 261.554 11 261.429 11H260.304L264.602 0.252499H266.072L270.369 11ZM280.056 5.825C280.471 5.825 280.836 5.77 281.151 5.66C281.471 5.55 281.738 5.3975 281.953 5.2025C282.173 5.0025 282.338 4.765 282.448 4.49C282.558 4.215 282.613 3.9125 282.613 3.5825C282.613 2.8975 282.401 2.3625 281.976 1.9775C281.556 1.5925 280.916 1.4 280.056 1.4H278.331V5.825H280.056ZM280.056 0.252499C280.736 0.252499 281.326 0.3325 281.826 0.4925C282.331 0.647499 282.748 0.869999 283.078 1.16C283.408 1.45 283.653 1.8 283.813 2.21C283.978 2.62 284.061 3.0775 284.061 3.5825C284.061 4.0825 283.973 4.54 283.798 4.955C283.623 5.37 283.366 5.7275 283.026 6.0275C282.691 6.3275 282.273 6.5625 281.773 6.7325C281.278 6.8975 280.706 6.98 280.056 6.98H278.331V11H276.883V0.252499H280.056ZM294.165 5.825C294.58 5.825 294.945 5.77 295.26 5.66C295.58 5.55 295.847 5.3975 296.062 5.2025C296.282 5.0025 296.447 4.765 296.557 4.49C296.667 4.215 296.722 3.9125 296.722 3.5825C296.722 2.8975 296.51 2.3625 296.085 1.9775C295.665 1.5925 295.025 1.4 294.165 1.4H292.44V5.825H294.165ZM294.165 0.252499C294.845 0.252499 295.435 0.3325 295.935 0.4925C296.44 0.647499 296.857 0.869999 297.187 1.16C297.517 1.45 297.762 1.8 297.922 2.21C298.087 2.62 298.17 3.0775 298.17 3.5825C298.17 4.0825 298.082 4.54 297.907 4.955C297.732 5.37 297.475 5.7275 297.135 6.0275C296.8 6.3275 296.382 6.5625 295.882 6.7325C295.387 6.8975 294.815 6.98 294.165 6.98H292.44V11H290.992V0.252499H294.165Z" fill="#350177"/>
</svg>
