<svg width="558" height="109" viewBox="0 0 558 109" fill="none" xmlns="http://www.w3.org/2000/svg">
<path d="M43.1059 22.0759L42.3042 23.7684C42.3042 24.1247 42.5417 24.4216 43.0168 24.6592C43.4919 24.8967 43.967 25.0155 44.4421 25.0155C47.1738 25.0155 49.6384 23.5902 51.8357 20.7397C54.0924 17.8891 55.2207 15.0386 55.2207 12.188C55.2207 10.4658 54.7159 9.09994 53.7064 8.09037C52.6968 7.02142 51.1527 6.48694 49.0742 6.48694C45.0359 6.48694 40.6116 8.17945 35.8013 11.5645C31.0504 14.8901 26.7746 19.0175 22.9739 23.9465C19.2325 28.8756 16.0851 34.2798 13.5314 40.159C10.9778 45.9789 9.70102 51.3534 9.70102 56.2825C9.70102 61.1521 11.0966 64.9529 13.8878 67.6846C16.7383 70.4164 20.5093 71.7823 25.2009 71.7823C29.8924 71.7823 34.673 70.0304 39.5427 66.5266C44.4718 63.0228 48.2428 58.1234 50.8558 51.8285C50.7964 51.1158 50.7667 50.3438 50.7667 49.5124C50.7667 35.6754 53.4094 27.9848 58.6948 26.4408C60.5952 25.8469 61.7532 25.55 62.1689 25.55C62.9409 25.55 63.3269 26.0251 63.3269 26.9753C63.3269 27.9254 62.644 30.4197 61.2781 34.4579C59.9716 38.4368 59.3184 42.4157 59.3184 46.3946C59.3184 57.9156 60.8921 69.4959 64.0396 81.1357C67.2465 92.7754 70.6018 100.347 74.1056 103.851C74.2244 103.97 74.4322 104.118 74.7291 104.296C75.0855 104.534 75.2636 104.801 75.2636 105.098C75.2636 105.989 74.5807 106.702 73.2148 107.236C71.8489 107.83 70.8096 108.127 70.097 108.127C68.1373 108.127 66.2666 107.206 64.485 105.365C62.7628 103.524 61.2484 101 59.9419 97.7936C58.6948 94.6461 57.5665 91.2611 56.5569 87.6385C55.5473 84.0753 54.6862 80.1855 53.9736 75.969C52.7265 68.7239 51.806 61.9539 51.2121 55.6589C47.7677 62.2508 42.898 67.4768 36.6031 71.3369C30.3675 75.197 24.3992 77.1271 18.6981 77.1271C13.0563 77.1271 8.57268 75.6424 5.24704 72.6731C1.98078 69.7038 0.347656 65.428 0.347656 59.8456C0.347656 54.2039 1.8917 48.1168 4.9798 41.5843C8.12728 35.0518 12.1656 28.9647 17.0946 23.323C22.0831 17.6813 28.0811 12.9601 35.0887 9.15933C42.1557 5.3586 49.2227 3.45823 56.2897 3.45823C60.5655 3.45823 62.7034 4.97259 62.7034 8.0013C62.7034 10.5549 61.2781 13.643 58.4276 17.2656C55.6364 20.8881 52.1623 24.0653 48.0053 26.7971C43.9076 29.5289 40.2256 30.8948 36.9594 30.8948C36.128 30.8948 35.4747 30.5681 34.9996 29.9149C34.5839 29.2022 34.3761 28.5193 34.3761 27.866C34.3761 26.6783 35.4153 25.3718 37.4939 23.9465C39.6318 22.5213 41.3837 21.8086 42.7496 21.8086C42.9871 21.8086 43.1059 21.8977 43.1059 22.0759ZM91.9111 15.1277C91.9111 7.94191 89.3575 4.34903 84.2502 4.34903C79.7369 4.34903 76.1737 7.37774 73.5607 13.4352C71.007 19.4926 69.7302 27.1831 69.7302 36.5068C69.7302 45.7711 71.3931 53.9961 74.7187 61.1818C78.8758 55.7183 82.7656 48.295 86.3881 38.9119C90.0701 29.4695 91.9111 21.5414 91.9111 15.1277ZM90.9312 73.9202C93.5442 73.9202 96.1869 73.1779 98.8593 71.6932C101.532 70.2086 103.699 68.1894 105.362 65.6358L105.986 66.7048C103.729 70.6243 100.581 73.7124 96.5432 75.969C92.5643 78.2851 88.6745 79.4432 84.8738 79.4432H84.6065C80.0338 79.4432 76.1143 77.6913 72.848 74.1875C66.5531 67.5362 63.4056 57.3217 63.4056 43.5441C63.4056 36.3583 64.3558 29.5883 66.2561 23.2339C68.0971 16.8796 71.0367 11.5348 75.075 7.19958C79.1133 2.86437 83.8345 0.696765 89.2387 0.696765C95.4743 0.696765 98.592 4.4975 98.592 12.099C98.592 18.8096 96.3057 27.094 91.7329 36.9522C87.2195 46.8103 81.8154 55.451 75.5204 62.8743C79.3805 70.2383 84.5175 73.9202 90.9312 73.9202ZM121.429 52.0957C121.607 51.7394 123.211 51.5612 126.239 51.5612C129.328 51.5612 130.872 52.0066 130.872 52.8974C130.872 53.0756 130.693 53.4319 130.337 53.9664C128.259 56.8169 127.219 59.7863 127.219 62.8743C127.219 65.9624 127.932 68.5161 129.357 70.5352C130.842 72.4949 132.713 73.4748 134.969 73.4748C138.651 73.4748 142.393 70.8618 146.193 65.6358L146.817 66.7048C142.185 74.0687 137.077 77.7506 131.495 77.7506C127.279 77.7506 124.042 75.583 121.785 71.2478C120.835 72.6731 119.291 74.0093 117.153 75.2564C115.015 76.5035 112.996 77.1271 111.096 77.1271C105.929 77.1271 103.346 74.9595 103.346 70.6243C103.346 67.2392 104.771 63.7058 107.622 60.0238C110.532 56.2825 113.382 54.4118 116.173 54.4118C116.411 54.4118 116.53 54.5009 116.53 54.679C116.53 54.8572 116.411 55.065 116.173 55.3026C114.926 55.9558 113.857 57.3217 112.967 59.4002C112.135 61.4194 111.719 63.4979 111.719 65.6358C111.719 69.971 113.382 72.1386 116.708 72.1386C117.658 72.1386 118.549 71.9011 119.38 71.426C120.271 70.8915 120.806 70.1492 120.984 69.199C120.212 67.1205 119.826 64.9529 119.826 62.6962C119.826 60.4395 119.915 58.5391 120.093 56.9951C120.568 53.7288 121.013 52.0957 121.429 52.0957ZM152.875 54.5899L152.697 56.906C152.697 62.7259 153.647 67.0314 155.547 69.8226C156.676 71.4854 158.071 72.3168 159.734 72.3168C161.456 72.3168 162.585 71.3072 163.119 69.2881C161.694 65.7249 160.981 61.746 160.981 57.3514C160.981 55.5104 163.357 54.5899 168.108 54.5899C168.939 54.5899 169.355 55.0353 169.355 55.9261C169.355 58.8955 169.681 61.8054 170.335 64.6559C171.522 70.2383 173.987 73.0294 177.728 73.0294C178.856 73.0294 179.896 72.3762 180.846 71.0697C178.53 67.0908 177.372 62.2211 177.372 56.4606C177.372 55.3323 178.144 54.2039 179.688 53.0756C181.291 51.8879 182.717 51.294 183.964 51.294C185.389 51.294 186.102 53.6398 186.102 58.3313C186.102 58.8064 185.983 59.9347 185.745 61.7163C186.755 65.3389 188.032 68.2191 189.576 70.357C191.12 72.4356 193.317 73.4748 196.168 73.4748C199.85 73.4748 203.591 70.8618 207.392 65.6358L208.015 66.7048C203.383 74.0687 198.276 77.7506 192.694 77.7506C188.061 77.7506 184.409 75.969 181.737 72.4059C179.421 76.0284 176.659 77.8397 173.452 77.8397C169.295 77.8397 166.118 75.583 163.921 71.0697C163.208 72.5543 162.11 73.9202 160.625 75.1673C159.14 76.4144 157.359 77.038 155.28 77.038C152.133 77.038 149.49 75.4346 147.352 72.2277C145.273 69.0208 144.234 64.9529 144.234 60.0238L144.412 57.4405C144.472 56.7872 145.719 56.0152 148.154 55.1244C150.589 54.2336 152.044 53.7882 152.519 53.7882C152.756 53.7882 152.875 54.0555 152.875 54.5899ZM226.679 69.1099C227.452 67.3877 227.838 65.2201 227.838 62.6071C227.838 59.9941 227.481 57.9453 226.769 56.4606C226.115 54.9166 225.343 54.1445 224.453 54.1445C223.799 54.1445 223.235 54.5602 222.76 55.3917C222.285 56.2231 222.047 57.4108 222.047 58.9548C222.047 60.4395 222.463 62.1617 223.294 64.1215C224.126 66.0812 225.254 67.744 226.679 69.1099ZM211.981 64.5669C211.981 67.1799 212.664 69.4068 214.03 71.2478C215.455 73.0294 217.296 73.9202 219.553 73.9202C221.81 73.9202 223.651 73.1185 225.076 71.5151C222.76 69.9116 220.86 67.6549 219.375 64.745C217.89 61.8351 217.148 58.6876 217.148 55.3026C217.148 54.9463 217.207 54.4712 217.326 53.8773C213.763 56.3715 211.981 59.9347 211.981 64.5669ZM216.168 78.9978C212.724 78.9978 210.051 77.8397 208.151 75.5236C206.31 73.2076 205.389 70.268 205.389 66.7048C205.389 63.1416 206.518 59.8753 208.774 56.906C211.031 53.8773 214.119 52.2739 218.039 52.0957C218.989 50.611 220.385 49.8687 222.226 49.8687C224.126 49.8687 225.818 50.9674 227.303 53.1647C228.847 55.3026 229.619 58.0937 229.619 61.5381C229.619 64.9826 229.114 67.9222 228.105 70.357C229.589 71.426 231.133 71.9605 232.737 71.9605C235.884 71.9605 238.824 69.8522 241.556 65.6358L242.268 66.5266C239.358 71.2775 235.825 73.653 231.668 73.653C230.005 73.653 228.431 73.2967 226.947 72.584C225.64 74.6032 224.007 76.1769 222.047 77.3052C220.147 78.4336 218.187 78.9978 216.168 78.9978ZM259.175 55.6589C259.175 55.1244 259.442 54.7681 259.976 54.5899C263.54 53.1647 265.529 52.452 265.945 52.452C266.42 52.452 266.657 52.7193 266.657 53.2537C266.242 55.5698 266.034 57.8859 266.034 60.202C266.034 64.6559 266.806 68.2488 268.35 70.9806C269.894 73.653 271.943 74.9892 274.496 74.9892C278.416 74.9892 282.632 71.8714 287.146 65.6358L287.769 66.7048C285.156 70.8024 282.335 73.8905 279.307 75.969C276.337 78.107 273.457 79.1759 270.666 79.1759C266.39 79.1759 263.154 76.9489 260.956 72.4949C258.64 75.9394 255.641 77.6616 251.959 77.6616C248.337 77.6616 245.367 76.0878 243.051 72.9403C240.735 69.7335 239.577 65.9624 239.577 61.6272C239.577 57.4108 240.498 54.7087 242.339 53.521C243.764 52.6896 245.456 52.2739 247.416 52.2739C247.951 52.2739 248.218 53.3428 248.218 55.4807C248.218 57.6186 247.802 59.9347 246.971 62.4289C247.802 66.6454 249.703 69.6147 252.672 71.3369C253.86 72.0495 255.107 72.4059 256.413 72.4059C257.779 72.4059 259.056 71.8417 260.244 70.7134C259.294 67.9816 258.818 65.2498 258.818 62.518C258.818 59.7862 258.937 57.4999 259.175 55.6589ZM293.534 60.7364L291.842 60.6474C291.248 60.6474 290.832 60.9146 290.595 61.4491C289.882 63.2307 288.754 65.2498 287.21 67.5065L286.497 66.5266C287.685 64.9232 288.605 62.904 289.259 60.4692C289.259 59.9941 289.051 59.6675 288.635 59.4893C285.963 58.5985 284.626 56.2528 284.626 52.452C284.626 51.6206 285.339 50.8486 286.764 50.136C288.19 49.3639 289.377 48.9779 290.328 48.9779C291.278 48.9779 291.753 49.3936 291.753 50.225C291.753 54.679 293.831 56.906 297.988 56.906C298.998 56.906 299.8 56.8169 300.394 56.6388C301.047 56.4012 301.403 56.2825 301.463 56.2825C302.056 56.2825 302.353 56.7278 302.353 57.6186C302.353 58.4501 302.116 59.0439 301.641 59.4002C301.225 59.6972 300.75 60.3801 300.215 61.4491C299.681 62.4586 299.414 63.6464 299.414 65.0123C299.414 67.6846 300.186 69.7929 301.73 71.3369C303.333 72.8216 305.293 73.5639 307.609 73.5639C309.984 73.5639 312.33 72.881 314.646 71.5151C316.962 70.1492 318.982 68.1894 320.704 65.6358L321.327 66.7048C319.249 70.3273 316.369 73.2373 312.687 75.4346C309.005 77.6319 305.709 78.7305 302.799 78.7305C296.86 78.7305 293.891 76.0284 293.891 70.6243C293.891 69.6147 294.247 68.2488 294.96 66.5266C295.672 64.8044 296.385 63.3494 297.098 62.1617L298.167 60.3801C298.167 60.1426 298.077 60.0238 297.899 60.0238C295.999 60.4989 294.544 60.7364 293.534 60.7364ZM383.679 22.0759L382.877 23.7684C382.877 24.1247 383.115 24.4216 383.59 24.6592C384.065 24.8967 384.54 25.0155 385.015 25.0155C387.747 25.0155 390.211 23.5902 392.409 20.7397C394.665 17.8891 395.794 15.0386 395.794 12.188C395.794 10.4658 395.289 9.09994 394.279 8.09037C393.27 7.02142 391.726 6.48694 389.647 6.48694C385.609 6.48694 381.185 8.17945 376.374 11.5645C371.623 14.8901 367.348 19.0175 363.547 23.9465C359.806 28.8756 356.658 34.2798 354.104 40.159C351.551 45.9789 350.274 51.3534 350.274 56.2825C350.274 61.1521 351.67 64.9529 354.461 67.6846C357.311 70.4164 361.082 71.7823 365.774 71.7823C370.465 71.7823 375.246 70.0304 380.116 66.5266C385.045 63.0228 388.816 58.1234 391.429 51.8285C391.369 51.1158 391.34 50.3438 391.34 49.5124C391.34 35.6754 393.982 27.9848 399.268 26.4408C401.168 25.8469 402.326 25.55 402.742 25.55C403.514 25.55 403.9 26.0251 403.9 26.9753C403.9 27.9254 403.217 30.4197 401.851 34.4579C400.545 38.4368 399.891 42.4157 399.891 46.3946C399.891 57.9156 401.465 69.4959 404.613 81.1357C407.819 92.7754 411.175 100.347 414.679 103.851C414.797 103.97 415.005 104.118 415.302 104.296C415.658 104.534 415.837 104.801 415.837 105.098C415.837 105.989 415.154 106.702 413.788 107.236C412.422 107.83 411.383 108.127 410.67 108.127C408.71 108.127 406.84 107.206 405.058 105.365C403.336 103.524 401.821 101 400.515 97.7936C399.268 94.6461 398.139 91.2611 397.13 87.6385C396.12 84.0753 395.259 80.1855 394.547 75.969C393.299 68.7239 392.379 61.9539 391.785 55.6589C388.341 62.2508 383.471 67.4768 377.176 71.3369C370.94 75.197 364.972 77.1271 359.271 77.1271C353.629 77.1271 349.146 75.6424 345.82 72.6731C342.554 69.7038 340.921 65.428 340.921 59.8456C340.921 54.2039 342.465 48.1168 345.553 41.5843C348.7 35.0518 352.739 28.9647 357.668 23.323C362.656 17.6813 368.654 12.9601 375.662 9.15933C382.729 5.3586 389.796 3.45823 396.863 3.45823C401.138 3.45823 403.276 4.97259 403.276 8.0013C403.276 10.5549 401.851 13.643 399.001 17.2656C396.209 20.8881 392.735 24.0653 388.578 26.7971C384.481 29.5289 380.799 30.8948 377.532 30.8948C376.701 30.8948 376.048 30.5681 375.573 29.9149C375.157 29.2022 374.949 28.5193 374.949 27.866C374.949 26.6783 375.988 25.3718 378.067 23.9465C380.205 22.5213 381.957 21.8086 383.323 21.8086C383.56 21.8086 383.679 21.8977 383.679 22.0759ZM427.852 55.6589C427.852 55.1244 428.119 54.7681 428.654 54.5899C432.217 53.1647 434.206 52.452 434.622 52.452C435.097 52.452 435.335 52.7193 435.335 53.2537C434.919 55.5698 434.711 57.8859 434.711 60.202C434.711 64.6559 435.483 68.2488 437.027 70.9806C438.571 73.653 440.62 74.9892 443.174 74.9892C447.093 74.9892 451.31 71.8714 455.823 65.6358L456.446 66.7048C453.833 70.8024 451.013 73.8905 447.984 75.969C445.015 78.107 442.134 79.1759 439.343 79.1759C435.067 79.1759 431.831 76.9489 429.633 72.4949C427.317 75.9394 424.318 77.6616 420.636 77.6616C417.014 77.6616 414.045 76.0878 411.728 72.9403C409.412 69.7335 408.254 65.9624 408.254 61.6272C408.254 57.4108 409.175 54.7087 411.016 53.521C412.441 52.6896 414.134 52.2739 416.093 52.2739C416.628 52.2739 416.895 53.3428 416.895 55.4807C416.895 57.6186 416.479 59.9347 415.648 62.4289C416.479 66.6454 418.38 69.6147 421.349 71.3369C422.537 72.0495 423.784 72.4059 425.09 72.4059C426.456 72.4059 427.733 71.8417 428.921 70.7134C427.971 67.9816 427.496 65.2498 427.496 62.518C427.496 59.7862 427.614 57.4999 427.852 55.6589ZM455.531 55.4807C455.531 54.9463 455.798 54.5899 456.332 54.4118C459.896 52.9865 461.885 52.2739 462.301 52.2739C462.776 52.2739 463.013 52.5411 463.013 53.0756C462.598 55.5104 462.39 57.9156 462.39 60.291C462.39 64.8638 463.162 68.4864 464.706 71.1587C466.25 73.8311 468.269 75.1673 470.763 75.1673C474.683 75.1673 478.959 71.9902 483.591 65.6358L484.214 66.7048C481.542 70.8618 478.662 74.0093 475.574 76.1472C472.485 78.3445 469.368 79.4432 466.22 79.4432C463.132 79.4432 460.489 77.8991 458.292 74.811C456.154 71.6635 455.085 67.2689 455.085 61.6272C455.085 60.0238 455.234 57.975 455.531 55.4807ZM464.349 39.9809C464.349 38.5556 463.874 37.3382 462.924 36.3286C462.033 35.319 460.935 34.8143 459.628 34.8143C458.381 34.8143 457.312 35.319 456.421 36.3286C455.531 37.3382 455.085 38.5556 455.085 39.9809C455.085 41.4062 455.531 42.6236 456.421 43.6331C457.312 44.6427 458.381 45.1475 459.628 45.1475C460.935 45.1475 462.033 44.6427 462.924 43.6331C463.874 42.6236 464.349 41.4062 464.349 39.9809ZM497.177 70.0898C499.969 70.0898 502.641 67.0908 505.195 61.0928C503.829 58.361 502.7 55.9558 501.81 53.8773C501.334 54.293 500.8 54.5009 500.206 54.5009C499.256 54.5009 498.781 53.907 498.781 52.7193C498.781 52.3629 499.018 52.0363 499.493 51.7394C500.028 51.3831 500.295 50.9377 500.295 50.4032C500.295 49.2749 499.79 48.7107 498.781 48.7107C496.346 48.7107 494.327 50.0469 492.723 52.7193C491.179 55.3323 490.407 58.064 490.407 60.9146C490.407 63.7058 490.972 65.9327 492.1 67.5956C493.228 69.2584 494.921 70.0898 497.177 70.0898ZM499.85 18.9581C499.85 28.2818 502.7 38.9119 508.401 50.8486C510.48 42.5345 511.519 34.933 511.519 28.0442C511.519 14.3259 509.173 7.46682 504.482 7.46682C501.394 7.46682 499.85 11.2972 499.85 18.9581ZM510.272 54.4118C512.588 58.9251 514.993 63.0525 517.488 66.7938C520.041 70.4758 521.704 72.7919 522.476 73.7421C523.307 74.6329 523.723 75.2267 523.723 75.5236C523.723 75.8206 523.07 76.5035 521.763 77.5725C520.516 78.6414 519.418 79.1759 518.467 79.1759C517.517 79.1759 515.884 77.6913 513.568 74.7219C511.252 71.6932 508.847 67.8925 506.353 63.3197C501.78 71.8714 496.494 76.1472 490.496 76.1472C487.468 76.1472 485.211 75.3455 483.726 73.7421C482.301 72.1386 481.588 70.0304 481.588 67.4174C481.588 62.8446 483.34 58.3313 486.844 53.8773C490.407 49.3639 494.446 47.1072 498.959 47.1072H499.048C496.257 39.3276 494.861 32.4388 494.861 26.4408C494.861 20.4427 496.316 15.0683 499.226 10.3174C502.136 5.56645 505.224 3.19099 508.491 3.19099C510.747 3.19099 512.588 4.58657 514.013 7.37774C515.498 10.1095 516.24 14.2963 516.24 19.938C516.24 31.6965 514.251 43.1877 510.272 54.4118ZM537.961 49.067L538.05 47.909C538.05 47.1963 537.249 46.84 535.645 46.84C534.042 46.84 532.587 47.3151 531.28 48.2653C530.033 49.2155 529.41 50.4923 529.41 52.0957C529.41 54.9463 531.458 56.3715 535.556 56.3715C536.209 56.3715 536.863 56.2825 537.516 56.1043C538.228 55.8667 538.941 55.748 539.654 55.748C540.366 55.748 540.723 55.9855 540.723 56.4606C540.723 56.52 540.485 56.6685 540.01 56.906C539.535 57.0842 538.941 57.3811 538.228 57.7968C537.575 58.2125 536.892 58.747 536.18 59.4002C534.517 60.9443 533.685 63.0525 533.685 65.7249C533.685 68.3973 534.487 70.4461 536.091 71.8714C537.694 73.2373 539.773 73.9202 542.326 73.9202C544.88 73.9202 547.493 73.1779 550.165 71.6932C552.838 70.2086 555.005 68.1894 556.668 65.6358L557.292 66.7048C555.035 70.6243 551.887 73.7124 547.849 75.969C543.87 78.2851 540.218 79.4432 536.892 79.4432C533.626 79.4432 531.102 78.7602 529.321 77.3943C527.598 76.0284 526.737 74.2765 526.737 72.1386C526.737 69.9413 527.272 67.9222 528.341 66.0812C529.41 64.2402 530.33 62.9337 531.102 62.1617C531.934 61.3303 532.527 60.7661 532.884 60.4692C533.299 60.1129 533.507 59.8753 533.507 59.7566C533.507 59.5784 533.478 59.4893 533.418 59.4893C531.518 60.202 529.677 60.5583 527.895 60.5583C524.748 60.5583 523.174 59.2815 523.174 56.7278C523.174 53.2834 525.134 50.3141 529.053 47.8199C532.973 45.3257 536.388 44.0785 539.297 44.0785C542.267 44.0785 543.751 44.7912 543.751 46.2165C543.751 47.1072 543.276 48.0574 542.326 49.067C541.376 50.0766 540.515 50.5814 539.743 50.5814C538.555 50.5814 537.961 50.0766 537.961 49.067Z" fill="#E5C366"/>
</svg>
