<svg width="229" height="200" viewBox="0 0 229 200" fill="none" xmlns="http://www.w3.org/2000/svg">
<mask id="mask0_202_5095" style="mask-type:luminance" maskUnits="userSpaceOnUse" x="60" y="25" width="108" height="100">
<path d="M60.7285 25.7559H167.271V124.008H60.7285V25.7559Z" fill="white"/>
</mask>
<g mask="url(#mask0_202_5095)">
<path fill-rule="evenodd" clip-rule="evenodd" d="M82.4356 25.875C70.8807 35.0994 63.4326 49.5424 63.4326 65.7768C63.4326 71.5374 64.3743 77.0778 66.0998 82.241C66.1089 82.1676 66.1276 82.0942 66.1367 82.0208C66.1832 82.1586 66.2292 82.2873 66.2661 82.4251C72.9387 102.289 91.1016 116.539 112.467 116.539C139.499 116.539 161.4 93.7441 161.4 65.63C161.4 50.2041 154.81 36.3765 144.381 27.042C163.67 43.7727 169.106 71.9969 157.57 95.1036C165.876 83.6559 168.063 63.7832 163.485 50.5897C165.903 56.7088 167.223 63.3886 167.223 70.3709C167.223 99.9823 143.421 123.99 114.072 123.99C96.8972 123.99 81.6324 115.776 71.9142 103.042C68.1113 98.0531 65.0566 92.1728 63.0911 85.7872H63.1002C61.559 80.707 60.7285 75.2953 60.7285 69.6906C60.7285 51.7104 69.2748 35.7792 82.4356 25.875Z" fill="#E5C366"/>
</g>
<path fill-rule="evenodd" clip-rule="evenodd" d="M151.118 2.95916C137.265 1.12198 129.032 21.6744 143.134 32.2217C130.74 21.1968 138.279 5.96397 151.118 2.95916Z" fill="#E5C366"/>
<path fill-rule="evenodd" clip-rule="evenodd" d="M128.58 11.2188C125.682 21.2149 138.307 32.8011 146.447 46.5456C154.606 60.3359 156.064 76.9192 143.226 88.7352C153.471 81.2102 156.332 69.4225 153.249 57.6168C147.896 37.1191 126.291 24.2378 128.58 11.2188Z" fill="#E5C366"/>
<path fill-rule="evenodd" clip-rule="evenodd" d="M114.663 0C110.99 20.6264 123.347 27.2966 133.702 39.4151C144.547 52.1123 152.456 71.4707 141.788 85.2886C154.071 71.0845 146.31 52.1213 135.899 39.222C125.765 26.6535 112.955 20.0014 114.663 0Z" fill="#E5C366"/>
<path fill-rule="evenodd" clip-rule="evenodd" d="M116.26 28.5912C112.706 23.5844 104.049 19.128 102.065 27.6083C108.563 26.0833 116.26 28.5912 116.26 28.5912Z" fill="#E5C366"/>
<path fill-rule="evenodd" clip-rule="evenodd" d="M95.7244 39.976C108.959 26.4155 128.413 33.3425 137.559 52.1956C137.559 52.1956 123.587 28.7303 95.7244 39.976Z" fill="#E5C366"/>
<path fill-rule="evenodd" clip-rule="evenodd" d="M158.196 18.7888C154.191 11.2915 141.011 14.5165 140.762 25.2382C141.861 15.1872 152.142 13.5052 158.196 18.7888Z" fill="#E5C366"/>
<path fill-rule="evenodd" clip-rule="evenodd" d="M118.05 87.098C126.725 88.3932 131.349 80.8778 129.512 75.1816C128.728 72.7561 126.568 70.5327 122.582 69.1455C116.417 67.0142 108.119 67.6753 100.063 63.8162C93.1405 60.5088 85.8587 53.1403 78.7158 35.5C86.376 42.8042 98.429 40.6915 109.052 43.1627C116.786 44.9632 124.012 49.5387 127.039 60.27C112.061 45.2387 96.4816 47.0855 96.4816 47.0855C111.599 47.876 124.27 60.3801 124.27 60.3801C103.431 63.3476 93.8053 53.2877 93.8053 53.2877C105.36 65.7828 120.551 59.9855 127.63 65.6997C138.197 74.2353 130.675 90.5618 118.05 87.098Z" fill="#E5C366"/>
<path fill-rule="evenodd" clip-rule="evenodd" d="M110.528 41.3438C130.251 42.1799 143.393 58.7175 137.532 78.37C137.736 53.1501 120.006 43.0805 110.528 41.3438Z" fill="#E5C366"/>
<path fill-rule="evenodd" clip-rule="evenodd" d="M124.03 97.5919C123.255 99.6775 121.187 101.69 119.581 103.168C117.283 105.291 114.875 107.257 112.697 109.49C110.878 111.354 109.208 113.412 108.045 115.737C107.953 114.285 108.138 112.898 108.525 111.4C108.977 109.654 109.679 107.918 109.91 106.118C110.223 103.674 109.54 101.661 108.138 99.6679C107.122 98.2253 105.821 96.9301 104.501 95.7721C102.572 94.0637 100.431 92.5201 98.2894 91.0865C97.5236 90.5722 96.7572 90.0849 95.9824 89.5796C95.3544 89.1754 94.727 88.7711 94.1269 88.3302C93.3708 87.7701 92.4563 87.0254 92.1432 86.1164C91.9305 85.5004 91.9951 84.876 92.1801 84.2606C92.466 83.268 93.0752 82.2483 93.647 81.3845C95.4469 78.6558 96.0283 75.9915 94.8932 72.8952C94.3305 71.3612 93.4723 69.974 92.7337 68.5218C91.7739 66.6293 91.3859 64.7555 91.7649 63.0645C91.6446 64.1394 91.7921 65.2608 92.2538 66.4362C92.5028 67.0703 92.8353 67.6766 93.1949 68.2554C93.7116 69.0639 94.2931 69.8086 94.8836 70.5527C95.4003 71.1958 95.9358 71.8479 96.3879 72.5373C96.9047 73.3091 97.1446 74.1729 97.1906 75.1006C97.2003 75.3947 97.2003 75.6979 97.1724 75.9921C97.0709 77.3516 96.6557 78.6751 96.2217 79.9702C96.0458 80.4942 95.8615 81.0362 95.7328 81.5872C95.6312 82.0101 95.5569 82.5335 95.7418 82.9468C95.7968 83.0665 95.8712 83.1766 95.954 83.2776C96.591 84.0771 97.9473 84.1505 98.889 84.2052C99.4329 84.2329 100.532 84.2419 101.012 84.4627C101.039 84.4814 101.067 84.4994 101.085 84.518C101.325 84.7569 101.242 85.51 101.196 85.8132C101.122 86.3005 100.984 86.7968 100.827 87.2654L100.421 88.5329L101.593 87.9085C101.925 87.7334 102.313 87.5776 102.673 87.4765C102.894 87.4212 103.661 87.2287 103.78 87.5499C103.947 88.0186 103.698 88.6803 103.513 89.0935L103.162 89.8744L104.011 89.8557C104.5 89.8467 106.789 89.7733 107.076 90.3244C107.177 90.5175 107.186 90.9037 107.195 91.1148C107.232 91.6478 107.297 92.1164 107.491 92.6217C108.155 94.3675 109.789 94.6243 111.432 94.2754C112.207 94.11 112.973 93.8158 113.702 93.5036C114.495 93.1728 115.271 92.8052 116.064 92.4653C118.538 91.3993 121.205 90.5271 123.281 92.8329C124.454 94.1371 124.63 95.9839 124.03 97.5919Z" fill="#E5C366"/>
<path d="M17.5312 153.263L17.2025 153.957C17.2025 154.103 17.2999 154.225 17.4947 154.322C17.6895 154.42 17.8843 154.468 18.0791 154.468C19.1991 154.468 20.2096 153.884 21.1105 152.715C22.0358 151.547 22.4984 150.378 22.4984 149.209C22.4984 148.503 22.2914 147.943 21.8775 147.529C21.4636 147.091 20.8305 146.872 19.9783 146.872C18.3226 146.872 16.5086 147.565 14.5363 148.953C12.5884 150.317 10.8353 152.009 9.27693 154.03C7.74295 156.051 6.45246 158.267 5.40546 160.677C4.35845 163.064 3.83495 165.267 3.83495 167.288C3.83495 169.285 4.40715 170.843 5.55155 171.963C6.7203 173.083 8.26645 173.643 10.19 173.643C12.1136 173.643 14.0737 172.925 16.0703 171.488C18.0912 170.052 19.6374 168.043 20.7087 165.462C20.6844 165.17 20.6722 164.853 20.6722 164.512C20.6722 158.839 21.7558 155.686 23.9228 155.053C24.702 154.809 25.1768 154.688 25.3472 154.688C25.6637 154.688 25.822 154.882 25.822 155.272C25.822 155.661 25.542 156.684 24.982 158.34C24.4463 159.971 24.1785 161.603 24.1785 163.234C24.1785 167.958 24.8237 172.706 26.1142 177.478C27.429 182.251 28.8048 185.355 30.2413 186.792C30.29 186.84 30.3753 186.901 30.497 186.974C30.6431 187.072 30.7161 187.181 30.7161 187.303C30.7161 187.668 30.4361 187.96 29.8761 188.179C29.3161 188.423 28.89 188.545 28.5978 188.545C27.7943 188.545 27.0273 188.167 26.2968 187.412C25.5907 186.658 24.9698 185.623 24.4341 184.308C23.9228 183.017 23.4602 181.63 23.0462 180.144C22.6323 178.683 22.2793 177.089 21.9871 175.36C21.4757 172.389 21.0983 169.613 20.8548 167.032C19.4426 169.735 17.446 171.878 14.865 173.461C12.3084 175.043 9.86131 175.835 7.52381 175.835C5.21067 175.835 3.37232 175.226 2.00878 174.008C0.669595 172.791 0 171.038 0 168.749C0 166.436 0.633072 163.94 1.89921 161.262C3.18971 158.583 4.84543 156.088 6.86639 153.774C8.9117 151.461 11.3709 149.526 14.2441 147.967C17.1416 146.409 20.0392 145.63 22.9367 145.63C24.6898 145.63 25.5664 146.251 25.5664 147.492C25.5664 148.539 24.982 149.806 23.8132 151.291C22.6688 152.776 21.2444 154.079 19.54 155.199C17.8599 156.319 16.3503 156.879 15.0111 156.879C14.6702 156.879 14.4024 156.745 14.2076 156.477C14.0371 156.185 13.9519 155.905 13.9519 155.637C13.9519 155.15 14.378 154.614 15.2302 154.03C16.1068 153.446 16.8251 153.154 17.3851 153.154C17.4825 153.154 17.5312 153.19 17.5312 153.263ZM37.5417 150.414C37.5417 147.468 36.4947 145.995 34.4007 145.995C32.5502 145.995 31.0893 147.237 30.0179 149.72C28.9709 152.204 28.4474 155.357 28.4474 159.18C28.4474 162.978 29.1292 166.351 30.4927 169.297C32.1972 167.057 33.792 164.013 35.2773 160.166C36.7869 156.295 37.5417 153.044 37.5417 150.414ZM37.14 174.52C38.2113 174.52 39.2949 174.215 40.3906 173.607C41.4863 172.998 42.375 172.17 43.0568 171.123L43.3124 171.561C42.3872 173.168 41.0967 174.435 39.441 175.36C37.8096 176.309 36.2147 176.784 34.6564 176.784H34.5468C32.672 176.784 31.0649 176.066 29.7257 174.629C27.1448 171.902 25.8543 167.714 25.8543 162.065C25.8543 159.119 26.2438 156.343 27.023 153.738C27.7778 151.133 28.9831 148.941 30.6388 147.164C32.2945 145.386 34.2303 144.498 36.446 144.498C39.0027 144.498 40.281 146.056 40.281 149.173C40.281 151.924 39.3436 155.321 37.4687 159.363C35.6182 163.404 33.4024 166.947 30.8214 169.991C32.4041 173.01 34.5103 174.52 37.14 174.52ZM49.6444 165.572C49.7174 165.425 50.3748 165.352 51.6166 165.352C52.8828 165.352 53.5159 165.535 53.5159 165.9C53.5159 165.973 53.4428 166.119 53.2967 166.338C52.4445 167.507 52.0184 168.725 52.0184 169.991C52.0184 171.257 52.3106 172.304 52.895 173.132C53.5037 173.935 54.2707 174.337 55.1959 174.337C56.7056 174.337 58.2395 173.266 59.7979 171.123L60.0535 171.561C58.1543 174.581 56.0603 176.09 53.7715 176.09C52.0427 176.09 50.7157 175.201 49.7905 173.424C49.4009 174.008 48.7678 174.556 47.8913 175.068C47.0147 175.579 46.1868 175.835 45.4077 175.835C43.2893 175.835 42.2301 174.946 42.2301 173.168C42.2301 171.78 42.8145 170.332 43.9833 168.822C45.1764 167.288 46.3451 166.521 47.4895 166.521C47.5869 166.521 47.6356 166.558 47.6356 166.631C47.6356 166.704 47.5869 166.789 47.4895 166.886C46.9782 167.154 46.5399 167.714 46.1747 168.566C45.8338 169.394 45.6633 170.246 45.6633 171.123C45.6633 172.901 46.3451 173.789 47.7086 173.789C48.0982 173.789 48.4635 173.692 48.8043 173.497C49.1696 173.278 49.3887 172.974 49.4618 172.584C49.1452 171.732 48.987 170.843 48.987 169.918C48.987 168.993 49.0235 168.213 49.0965 167.58C49.2913 166.241 49.4739 165.572 49.6444 165.572ZM62.5374 166.594L62.4644 167.544C62.4644 169.93 62.8539 171.695 63.6331 172.84C64.0957 173.521 64.6679 173.862 65.3497 173.862C66.0558 173.862 66.5185 173.448 66.7376 172.621C66.1532 171.16 65.861 169.528 65.861 167.726C65.861 166.972 66.835 166.594 68.7829 166.594C69.1238 166.594 69.2942 166.777 69.2942 167.142C69.2942 168.359 69.4282 169.553 69.696 170.721C70.183 173.01 71.1934 174.154 72.7274 174.154C73.1901 174.154 73.6162 173.887 74.0057 173.351C73.0561 171.72 72.5813 169.723 72.5813 167.361C72.5813 166.899 72.8979 166.436 73.5309 165.973C74.1884 165.486 74.7727 165.243 75.2841 165.243C75.8684 165.243 76.1606 166.205 76.1606 168.128C76.1606 168.323 76.1119 168.786 76.0145 169.516C76.4285 171.001 76.952 172.182 77.585 173.059C78.2181 173.911 79.119 174.337 80.2878 174.337C81.7974 174.337 83.3314 173.266 84.8897 171.123L85.1454 171.561C83.2462 174.581 81.1522 176.09 78.8634 176.09C76.9641 176.09 75.4667 175.36 74.371 173.899C73.4214 175.384 72.2891 176.127 70.9743 176.127C69.2699 176.127 67.9672 175.201 67.0663 173.351C66.7741 173.96 66.3237 174.52 65.7149 175.031C65.1062 175.542 64.3758 175.798 63.5235 175.798C62.2331 175.798 61.1495 175.141 60.273 173.826C59.4208 172.511 58.9946 170.843 58.9946 168.822L59.0677 167.763C59.092 167.495 59.6034 167.179 60.6017 166.813C61.6 166.448 62.1965 166.265 62.3913 166.265C62.4887 166.265 62.5374 166.375 62.5374 166.594ZM92.7979 172.547C93.1144 171.841 93.2727 170.953 93.2727 169.881C93.2727 168.81 93.1266 167.97 92.8344 167.361C92.5666 166.728 92.25 166.412 91.8848 166.412C91.6169 166.412 91.3856 166.582 91.1908 166.923C90.9961 167.264 90.8987 167.751 90.8987 168.384C90.8987 168.993 91.0691 169.699 91.41 170.502C91.7509 171.306 92.2135 171.987 92.7979 172.547ZM86.7715 170.685C86.7715 171.756 87.0515 172.669 87.6116 173.424C88.1959 174.154 88.9507 174.52 89.876 174.52C90.8013 174.52 91.5561 174.191 92.1405 173.534C91.1908 172.876 90.4117 171.951 89.803 170.758C89.1942 169.565 88.8899 168.274 88.8899 166.886C88.8899 166.74 88.9142 166.545 88.9629 166.302C87.502 167.325 86.7715 168.786 86.7715 170.685ZM88.4881 176.602C87.0759 176.602 85.9802 176.127 85.201 175.177C84.4462 174.228 84.0688 173.022 84.0688 171.561C84.0688 170.1 84.5314 168.761 85.4567 167.544C86.3819 166.302 87.6481 165.645 89.2551 165.572C89.6447 164.963 90.2169 164.658 90.9717 164.658C91.7509 164.658 92.4448 165.109 93.0535 166.01C93.6866 166.886 94.0031 168.031 94.0031 169.443C94.0031 170.855 93.7962 172.06 93.3822 173.059C93.991 173.497 94.624 173.716 95.2815 173.716C96.572 173.716 97.7772 172.852 98.8973 171.123L99.1895 171.488C97.9964 173.436 96.5476 174.41 94.8432 174.41C94.1614 174.41 93.5162 174.264 92.9074 173.972C92.3718 174.8 91.7022 175.445 90.8987 175.908C90.1195 176.37 89.316 176.602 88.4881 176.602ZM106.121 167.032C106.121 166.813 106.231 166.667 106.45 166.594C107.911 166.01 108.727 165.718 108.897 165.718C109.092 165.718 109.189 165.827 109.189 166.046C109.019 166.996 108.933 167.946 108.933 168.895C108.933 170.721 109.25 172.194 109.883 173.314C110.516 174.41 111.356 174.958 112.403 174.958C114.01 174.958 115.739 173.68 117.59 171.123L117.845 171.561C116.774 173.241 115.617 174.508 114.375 175.36C113.158 176.236 111.977 176.675 110.833 176.675C109.08 176.675 107.753 175.762 106.852 173.935C105.902 175.348 104.672 176.054 103.163 176.054C101.678 176.054 100.46 175.408 99.5105 174.118C98.5609 172.803 98.0861 171.257 98.0861 169.48C98.0861 167.751 98.4635 166.643 99.2183 166.156C99.8027 165.815 100.497 165.645 101.3 165.645C101.519 165.645 101.629 166.083 101.629 166.959C101.629 167.836 101.458 168.786 101.117 169.808C101.458 171.537 102.238 172.754 103.455 173.461C103.942 173.753 104.453 173.899 104.989 173.899C105.549 173.899 106.072 173.668 106.559 173.205C106.17 172.085 105.975 170.965 105.975 169.845C105.975 168.725 106.024 167.787 106.121 167.032ZM120.209 169.114L119.515 169.078C119.272 169.078 119.101 169.187 119.004 169.406C118.711 170.137 118.249 170.965 117.616 171.89L117.324 171.488C117.811 170.831 118.188 170.003 118.456 169.005C118.456 168.81 118.371 168.676 118.2 168.603C117.104 168.238 116.557 167.276 116.557 165.718C116.557 165.377 116.849 165.06 117.433 164.768C118.018 164.451 118.505 164.293 118.894 164.293C119.284 164.293 119.478 164.464 119.478 164.805C119.478 166.631 120.331 167.544 122.035 167.544C122.449 167.544 122.778 167.507 123.021 167.434C123.289 167.337 123.435 167.288 123.46 167.288C123.703 167.288 123.825 167.471 123.825 167.836C123.825 168.177 123.727 168.42 123.533 168.566C123.362 168.688 123.167 168.968 122.948 169.406C122.729 169.82 122.619 170.307 122.619 170.867C122.619 171.963 122.936 172.827 123.569 173.461C124.227 174.069 125.03 174.374 125.98 174.374C126.954 174.374 127.915 174.094 128.865 173.534C129.815 172.974 130.642 172.17 131.349 171.123L131.604 171.561C130.752 173.047 129.571 174.24 128.061 175.141C126.552 176.042 125.2 176.492 124.007 176.492C121.572 176.492 120.355 175.384 120.355 173.168C120.355 172.754 120.501 172.194 120.793 171.488C121.085 170.782 121.378 170.186 121.67 169.699L122.108 168.968C122.108 168.871 122.072 168.822 121.999 168.822C121.219 169.017 120.623 169.114 120.209 169.114ZM157.169 153.263L156.84 153.957C156.84 154.103 156.938 154.225 157.132 154.322C157.327 154.42 157.522 154.468 157.717 154.468C158.837 154.468 159.847 153.884 160.748 152.715C161.673 151.547 162.136 150.378 162.136 149.209C162.136 148.503 161.929 147.943 161.515 147.529C161.101 147.091 160.468 146.872 159.616 146.872C157.96 146.872 156.146 147.565 154.174 148.953C152.226 150.317 150.473 152.009 148.915 154.03C147.381 156.051 146.09 158.267 145.043 160.677C143.996 163.064 143.473 165.267 143.473 167.288C143.473 169.285 144.045 170.843 145.189 171.963C146.358 173.083 147.904 173.643 149.828 173.643C151.751 173.643 153.711 172.925 155.708 171.488C157.729 170.052 159.275 168.043 160.346 165.462C160.322 165.17 160.31 164.853 160.31 164.512C160.31 158.839 161.393 155.686 163.56 155.053C164.34 154.809 164.814 154.688 164.985 154.688C165.301 154.688 165.46 154.882 165.46 155.272C165.46 155.661 165.18 156.684 164.62 158.34C164.084 159.971 163.816 161.603 163.816 163.234C163.816 167.958 164.461 172.706 165.752 177.478C167.067 182.251 168.442 185.355 169.879 186.792C169.928 186.84 170.013 186.901 170.135 186.974C170.281 187.072 170.354 187.181 170.354 187.303C170.354 187.668 170.074 187.96 169.514 188.179C168.954 188.423 168.528 188.545 168.235 188.545C167.432 188.545 166.665 188.167 165.934 187.412C165.228 186.658 164.607 185.623 164.072 184.308C163.56 183.017 163.098 181.63 162.684 180.144C162.27 178.683 161.917 177.089 161.625 175.36C161.113 172.389 160.736 169.613 160.493 167.032C159.08 169.735 157.084 171.878 154.503 173.461C151.946 175.043 149.499 175.835 147.161 175.835C144.848 175.835 143.01 175.226 141.646 174.008C140.307 172.791 139.638 171.038 139.638 168.749C139.638 166.436 140.271 163.94 141.537 161.262C142.827 158.583 144.483 156.088 146.504 153.774C148.549 151.461 151.009 149.526 153.882 147.967C156.779 146.409 159.677 145.63 162.574 145.63C164.327 145.63 165.204 146.251 165.204 147.492C165.204 148.539 164.62 149.806 163.451 151.291C162.306 152.776 160.882 154.079 159.178 155.199C157.498 156.319 155.988 156.879 154.649 156.879C154.308 156.879 154.04 156.745 153.845 156.477C153.675 156.185 153.59 155.905 153.59 155.637C153.59 155.15 154.016 154.614 154.868 154.03C155.744 153.446 156.463 153.154 157.023 153.154C157.12 153.154 157.169 153.19 157.169 153.263ZM175.28 167.032C175.28 166.813 175.39 166.667 175.609 166.594C177.07 166.01 177.886 165.718 178.056 165.718C178.251 165.718 178.348 165.827 178.348 166.046C178.178 166.996 178.092 167.946 178.092 168.895C178.092 170.721 178.409 172.194 179.042 173.314C179.675 174.41 180.515 174.958 181.562 174.958C183.169 174.958 184.898 173.68 186.749 171.123L187.004 171.561C185.933 173.241 184.776 174.508 183.534 175.36C182.317 176.236 181.136 176.675 179.992 176.675C178.239 176.675 176.912 175.762 176.011 173.935C175.061 175.348 173.831 176.054 172.322 176.054C170.836 176.054 169.619 175.408 168.669 174.118C167.72 172.803 167.245 171.257 167.245 169.48C167.245 167.751 167.622 166.643 168.377 166.156C168.962 165.815 169.656 165.645 170.459 165.645C170.678 165.645 170.788 166.083 170.788 166.959C170.788 167.836 170.617 168.786 170.276 169.808C170.617 171.537 171.397 172.754 172.614 173.461C173.101 173.753 173.612 173.899 174.148 173.899C174.708 173.899 175.231 173.668 175.718 173.205C175.329 172.085 175.134 170.965 175.134 169.845C175.134 168.725 175.183 167.787 175.28 167.032ZM186.629 166.959C186.629 166.74 186.738 166.594 186.957 166.521C188.418 165.937 189.234 165.645 189.404 165.645C189.599 165.645 189.697 165.754 189.697 165.973C189.526 166.972 189.441 167.958 189.441 168.932C189.441 170.807 189.758 172.292 190.391 173.388C191.024 174.483 191.852 175.031 192.874 175.031C194.481 175.031 196.234 173.728 198.134 171.123L198.389 171.561C197.293 173.266 196.113 174.556 194.846 175.433C193.58 176.334 192.302 176.784 191.011 176.784C189.745 176.784 188.662 176.151 187.761 174.885C186.884 173.594 186.446 171.793 186.446 169.48C186.446 168.822 186.507 167.982 186.629 166.959ZM190.244 160.604C190.244 160.02 190.05 159.521 189.66 159.107C189.295 158.693 188.844 158.486 188.309 158.486C187.797 158.486 187.359 158.693 186.994 159.107C186.629 159.521 186.446 160.02 186.446 160.604C186.446 161.189 186.629 161.688 186.994 162.102C187.359 162.516 187.797 162.723 188.309 162.723C188.844 162.723 189.295 162.516 189.66 162.102C190.05 161.688 190.244 161.189 190.244 160.604ZM203.704 172.949C204.849 172.949 205.944 171.72 206.991 169.26C206.431 168.14 205.969 167.154 205.603 166.302C205.409 166.472 205.189 166.558 204.946 166.558C204.556 166.558 204.362 166.314 204.362 165.827C204.362 165.681 204.459 165.547 204.654 165.425C204.873 165.279 204.983 165.097 204.983 164.878C204.983 164.415 204.776 164.184 204.362 164.184C203.363 164.184 202.535 164.731 201.878 165.827C201.245 166.899 200.928 168.019 200.928 169.187C200.928 170.332 201.16 171.245 201.622 171.927C202.085 172.608 202.779 172.949 203.704 172.949ZM204.8 151.985C204.8 155.808 205.969 160.166 208.306 165.06C209.158 161.651 209.584 158.535 209.584 155.71C209.584 150.086 208.623 147.273 206.699 147.273C205.433 147.273 204.8 148.844 204.8 151.985ZM209.073 166.521C210.023 168.372 211.009 170.064 212.032 171.598C213.079 173.107 213.76 174.057 214.077 174.447C214.418 174.812 214.588 175.055 214.588 175.177C214.588 175.299 214.32 175.579 213.785 176.017C213.273 176.455 212.823 176.675 212.433 176.675C212.044 176.675 211.374 176.066 210.425 174.848C209.475 173.607 208.489 172.048 207.466 170.173C205.591 173.68 203.424 175.433 200.965 175.433C199.723 175.433 198.798 175.104 198.189 174.447C197.605 173.789 197.313 172.925 197.313 171.854C197.313 169.979 198.031 168.128 199.467 166.302C200.928 164.451 202.584 163.526 204.435 163.526H204.471C203.327 160.336 202.755 157.512 202.755 155.053C202.755 152.594 203.351 150.39 204.544 148.442C205.737 146.494 207.003 145.52 208.343 145.52C209.268 145.52 210.023 146.092 210.607 147.237C211.216 148.357 211.52 150.073 211.52 152.387C211.52 157.208 210.705 161.919 209.073 166.521ZM220.426 164.33L220.462 163.855C220.462 163.563 220.134 163.417 219.476 163.417C218.819 163.417 218.222 163.611 217.687 164.001C217.175 164.391 216.92 164.914 216.92 165.572C216.92 166.74 217.76 167.325 219.44 167.325C219.708 167.325 219.975 167.288 220.243 167.215C220.535 167.118 220.828 167.069 221.12 167.069C221.412 167.069 221.558 167.166 221.558 167.361C221.558 167.385 221.461 167.446 221.266 167.544C221.071 167.617 220.828 167.739 220.535 167.909C220.268 168.079 219.988 168.299 219.695 168.566C219.014 169.199 218.673 170.064 218.673 171.16C218.673 172.255 219.002 173.095 219.659 173.68C220.316 174.24 221.169 174.52 222.216 174.52C223.263 174.52 224.334 174.215 225.43 173.607C226.525 172.998 227.414 172.17 228.096 171.123L228.351 171.561C227.426 173.168 226.136 174.435 224.48 175.36C222.849 176.309 221.351 176.784 219.988 176.784C218.648 176.784 217.614 176.504 216.883 175.944C216.177 175.384 215.824 174.666 215.824 173.789C215.824 172.888 216.043 172.06 216.481 171.306C216.92 170.551 217.297 170.015 217.614 169.699C217.954 169.358 218.198 169.126 218.344 169.005C218.515 168.859 218.6 168.761 218.6 168.713C218.6 168.639 218.588 168.603 218.563 168.603C217.784 168.895 217.029 169.041 216.299 169.041C215.008 169.041 214.363 168.518 214.363 167.471C214.363 166.058 215.167 164.841 216.774 163.818C218.381 162.796 219.781 162.284 220.974 162.284C222.191 162.284 222.8 162.577 222.8 163.161C222.8 163.526 222.605 163.916 222.216 164.33C221.826 164.744 221.473 164.951 221.156 164.951C220.669 164.951 220.426 164.744 220.426 164.33Z" fill="#E5C366"/>
</svg>
