<svg width="126" height="146" viewBox="0 0 126 146" fill="none" xmlns="http://www.w3.org/2000/svg">
<mask id="mask0_120_752" style="mask-type:luminance" maskUnits="userSpaceOnUse" x="0" y="30" width="126" height="116">
<path d="M0 30.2891H125.287V145.827H0V30.2891Z" fill="white"/>
</mask>
<g mask="url(#mask0_120_752)">
<path fill-rule="evenodd" clip-rule="evenodd" d="M25.5261 30.4316C11.9382 41.2789 3.17983 58.2628 3.17983 77.3534C3.17983 84.1275 4.28716 90.6426 6.31631 96.7142C6.32698 96.6279 6.34901 96.5416 6.35967 96.4553C6.4144 96.6173 6.46841 96.7687 6.51177 96.9307C14.3583 120.289 35.7166 137.046 60.8405 137.046C92.6289 137.046 118.382 110.241 118.382 77.1808C118.382 59.041 110.633 42.7807 98.3695 31.804C121.052 51.4782 127.444 84.6679 113.878 111.84C123.646 98.378 126.218 75.0091 120.835 59.4944C123.678 66.6901 125.23 74.545 125.23 82.7558C125.23 117.577 97.2408 145.808 62.7289 145.808C42.5319 145.808 24.5815 136.149 13.1536 121.175C8.68164 115.308 5.08958 108.393 2.77827 100.884H2.78893C0.976552 94.9104 0 88.5466 0 81.9558C0 60.8123 10.0498 42.0783 25.5261 30.4316Z" fill="#E5C366"/>
</g>
<path fill-rule="evenodd" clip-rule="evenodd" d="M106.291 3.48044C90.001 1.32004 80.32 25.4883 96.903 37.8912C82.3279 24.9267 91.1943 7.01389 106.291 3.48044Z" fill="#E5C366"/>
<path fill-rule="evenodd" clip-rule="evenodd" d="M79.7886 13.1924C76.3806 24.9472 91.2272 38.5717 100.799 54.7344C110.394 70.9508 112.108 90.4517 97.0118 104.346C109.059 95.4976 112.423 81.6361 108.798 67.7534C102.503 43.6495 77.097 28.5019 79.7886 13.1924Z" fill="#E5C366"/>
<path fill-rule="evenodd" clip-rule="evenodd" d="M63.4227 0C59.1035 24.2553 73.6352 32.0989 85.8123 46.3495C98.5643 61.2806 107.865 84.0447 95.3198 100.294C109.765 83.5905 100.638 61.2912 88.3958 46.1224C76.4789 31.3427 61.4148 23.5203 63.4227 0Z" fill="#E5C366"/>
<path fill-rule="evenodd" clip-rule="evenodd" d="M65.3013 33.6222C61.1228 27.7346 50.943 22.4941 48.6096 32.4663C56.25 30.6731 65.3013 33.6222 65.3013 33.6222Z" fill="#E5C366"/>
<path fill-rule="evenodd" clip-rule="evenodd" d="M41.1533 47.0086C56.7163 31.0624 79.5935 39.2081 90.3484 61.378C90.3484 61.378 73.9176 33.7845 41.1533 47.0086Z" fill="#E5C366"/>
<path fill-rule="evenodd" clip-rule="evenodd" d="M114.616 22.0967C109.906 13.2804 94.4073 17.0728 94.1145 29.6808C95.4059 17.8615 107.496 15.8836 114.616 22.0967Z" fill="#E5C366"/>
<path fill-rule="evenodd" clip-rule="evenodd" d="M67.4061 102.423C77.608 103.946 83.0452 95.1083 80.8852 88.4099C79.9627 85.5577 77.4232 82.9432 72.7352 81.3119C65.4857 78.8056 55.7287 79.583 46.2546 75.0451C38.1145 71.1558 29.5516 62.4908 21.1521 41.7471C30.16 50.3363 44.3335 47.8519 56.8254 50.7579C65.92 52.8752 74.4175 58.2556 77.9769 70.8749C60.3634 53.1992 42.0435 55.3709 42.0435 55.3709C59.8204 56.3004 74.721 71.0044 74.721 71.0044C50.2155 74.494 38.8963 62.6642 38.8963 62.6642C52.4835 77.3575 70.3471 70.5403 78.6713 77.2599C91.0978 87.2972 82.2527 106.496 67.4061 102.423Z" fill="#E5C366"/>
<path fill-rule="evenodd" clip-rule="evenodd" d="M58.5618 48.6201C81.7538 49.6034 97.2081 69.0505 90.3168 92.1605C90.5556 62.5035 69.7068 50.6624 58.5618 48.6201Z" fill="#E5C366"/>
<path fill-rule="evenodd" clip-rule="evenodd" d="M74.4379 114.76C73.5267 117.213 71.0953 119.579 69.2069 121.318C66.5047 123.813 63.6724 126.125 61.1109 128.751C58.973 130.944 57.0085 133.364 55.6411 136.097C55.533 134.39 55.7498 132.759 56.2054 130.998C56.737 128.945 57.5622 126.903 57.8337 124.786C58.2025 121.912 57.3994 119.546 55.7498 117.201C54.5558 115.505 53.0255 113.982 51.4733 112.62C49.2053 110.611 46.6872 108.796 44.1691 107.11C43.2686 106.505 42.3673 105.932 41.4562 105.338C40.7177 104.863 39.98 104.387 39.2742 103.869C38.3851 103.21 37.3097 102.335 36.9416 101.266C36.6914 100.541 36.7674 99.8071 36.9849 99.0834C37.3211 97.9162 38.0375 96.7172 38.7099 95.7013C40.8265 92.4926 41.5102 89.3595 40.1754 85.7185C39.5137 83.9147 38.5045 82.2834 37.636 80.5757C36.5073 78.3503 36.051 76.1467 36.4967 74.1582C36.3552 75.4223 36.5286 76.7409 37.0716 78.1232C37.3645 78.8688 37.7554 79.5818 38.1783 80.2624C38.7859 81.2131 39.4697 82.0889 40.1641 82.9639C40.7717 83.7201 41.4014 84.4869 41.9331 85.2976C42.5408 86.2052 42.8229 87.221 42.8769 88.3118C42.8883 88.6578 42.8883 89.0143 42.8556 89.3602C42.7362 90.9589 42.2479 92.5152 41.7376 94.0382C41.5308 94.6544 41.314 95.2918 41.1626 95.9397C41.0432 96.437 40.9558 97.0525 41.1733 97.5385C41.238 97.6792 41.3254 97.8087 41.4228 97.9275C42.1719 98.8677 43.7668 98.954 44.8741 99.0183C45.5138 99.0509 46.8059 99.0615 47.3702 99.3211C47.4029 99.343 47.4349 99.3642 47.4569 99.3862C47.7391 99.667 47.6417 100.553 47.587 100.909C47.5003 101.482 47.3375 102.066 47.1527 102.617L46.6758 104.107L48.0539 103.373C48.4441 103.167 48.9004 102.984 49.324 102.865C49.5842 102.8 50.4854 102.574 50.6261 102.951C50.8215 103.503 50.5287 104.281 50.3119 104.767L49.899 105.685L50.8976 105.663C51.4726 105.652 54.1641 105.566 54.501 106.214C54.6204 106.441 54.6311 106.895 54.6418 107.144C54.6851 107.77 54.7612 108.321 54.9893 108.916C55.7704 110.968 57.6915 111.27 59.6233 110.86C60.5352 110.666 61.4357 110.32 62.2928 109.953C63.226 109.564 64.1379 109.131 65.0711 108.732C67.9801 107.478 71.1166 106.452 73.558 109.164C74.9368 110.697 75.1437 112.869 74.4379 114.76Z" fill="#E5C366"/>
</svg>
